<svg xmlns="http://www.w3.org/2000/svg" width="296.826" height="300" viewBox="0 0 296.826 300">
  <g id="Group_6203" data-name="Group 6203" transform="translate(-1078.424 936.637)">
    <path id="Path_4384" data-name="Path 4384" d="M1081.133-746.686q.553,1.942,1.211,3.828c6.805,19.573,21.505,34.135,36.383,36.633a26.826,26.826,0,0,0,3.1.343,25.306,25.306,0,0,0,4.679-.175c7.547-.994,14.588-1.67,21.165-2.065q1.857-.113,3.663-.193c65.478-2.961,83.3,22.893,99.721,39.794q.717.735,1.429,1.449c11.417,11.394,22.811,17.907,49.844,6.755,7.531-3.107,13.047-7.21,16.977-11.959q.656-.789,1.248-1.6c20.743-28.271-10.073-76.758-10.073-76.758,4.215-16.872,15.905-30.155,26.288-43.709q1.165-1.522,2.3-3.05c9.513-12.774,17.293-26.042,16.087-42.989-.068-.934-.16-1.88-.285-2.838-1.176-9.217-5-19.522-12.551-31.389-10.782-16.941-22.539-22-35.5-22.891q-1.363-.093-2.743-.126c-7.281-.189-14.936.741-23.008,1.475q-1.85.169-3.729.319c-21.436,1.687-45.75.672-73.648-26.5-21.178-20.625-53.359-16.878-77.621-1.894q-1.218.748-2.412,1.542a83.832,83.832,0,0,0-14.716,12.339q-1.476,1.567-2.843,3.2c-10.263,12.236-15.7,26.94-12.431,41.416,3.458,15.308,18.115,35.261,5.516,49.066q-.975,1.066-1.9,2.146-1.374,1.6-2.632,3.214a83.364,83.364,0,0,0-5.756,8.358q-.972,1.614-1.844,3.239a71.461,71.461,0,0,0-8.169,25.674q-.194,1.65-.3,3.291A70.177,70.177,0,0,0,1081.133-746.686Z" fill="#dbe2eb"/>
    <path id="Path_4385" data-name="Path 4385" d="M1261.255-866.914l-.767,162.117a16.549,16.549,0,0,1-4.2,10.965,16.574,16.574,0,0,1-12.494,5.574l-75.072-.355a16.549,16.549,0,0,1-10.936-4.176,16.574,16.574,0,0,1-5.6-12.52l.767-162.118a16.579,16.579,0,0,1,5.476-12.252,16.559,16.559,0,0,1,11.218-4.287l75.072.356a16.577,16.577,0,0,1,12.55,5.816A16.564,16.564,0,0,1,1261.255-866.914Z" fill="#63788f"/>
    <path id="Path_4386" data-name="Path 4386" d="M1240.294-694.637l-68.016-.322a16.552,16.552,0,0,1-11.012-4.242,16.576,16.576,0,0,1-5.527-12.453l.707-149.4a16.589,16.589,0,0,1,6.356-12.993,16.549,16.549,0,0,1,10.34-3.545l68.016.322a16.563,16.563,0,0,1,11.727,4.922,16.57,16.57,0,0,1,4.812,11.773l-.707,149.4a16.574,16.574,0,0,1-5.252,12.044A16.561,16.561,0,0,1,1240.294-694.637Z" fill="#fff"/>
    <path id="Rectangle_5153" data-name="Rectangle 5153" d="M0,0H34.622a0,0,0,0,1,0,0V0a8.236,8.236,0,0,1-8.236,8.236H8.236A8.236,8.236,0,0,1,0,0V0A0,0,0,0,1,0,0Z" transform="translate(1189.75 -879.531) rotate(0.271)" fill="#63788f"/>
    <circle id="Ellipse_245" data-name="Ellipse 245" cx="3.713" cy="3.713" r="3.713" transform="translate(1203.487 -881.604)" fill="#2a2e42"/>
    <rect id="Rectangle_5154" data-name="Rectangle 5154" width="82.63" height="24.43" transform="translate(1166.628 -839.514) rotate(0.271)" fill="#f0f3f7"/>
    <rect id="Rectangle_5155" data-name="Rectangle 5155" width="82.63" height="24.43" transform="translate(1166.467 -805.564) rotate(0.271)" fill="#f0f3f7"/>
    <path id="Path_4847" data-name="Path 4847" d="M0,0H82.63V24.43H0Z" transform="translate(1166.295 -769.1) rotate(0.271)" fill="#f0f3f7"/>
    <path id="Path_4848" data-name="Path 4848" d="M0,0H82.63V24.43H0Z" transform="translate(1166.122 -732.635) rotate(0.271)" fill="#f0f3f7"/>
    <rect id="Rectangle_5158" data-name="Rectangle 5158" width="20.119" height="18.322" rx="9.161" transform="matrix(1, 0.005, -0.005, 1, 1169.488, -836.446)" fill="#e4e6ea"/>
    <path id="Path_4862" data-name="Path 4862" d="M6.826,0A6.826,6.826,0,1,1,0,6.826,6.826,6.826,0,0,1,6.826,0Z" transform="translate(1172.677 -834.064)" fill="#1c4598"/>
    <rect id="Rectangle_5159" data-name="Rectangle 5159" width="37.543" height="1.437" rx="0.719" transform="matrix(1, 0.005, -0.005, 1, 1196.912, -823.922)" fill="#e4e6ea"/>
    <rect id="Rectangle_5160" data-name="Rectangle 5160" width="27.843" height="1.437" rx="0.719" transform="translate(1197.115 -828.771) rotate(0.271)" fill="#e4e6ea"/>
    <rect id="Rectangle_5161" data-name="Rectangle 5161" width="37.543" height="1.437" rx="0.719" transform="translate(1197.139 -833.98) rotate(0.271)" fill="#e4e6ea"/>
    <rect id="Rectangle_5162" data-name="Rectangle 5162" width="20.119" height="18.322" rx="9.161" transform="matrix(1, 0.005, -0.005, 1, 1169.147, -802.498)" fill="#e4e6ea"/>
    <path id="Path_4863" data-name="Path 4863" d="M6.826,0A6.826,6.826,0,1,1,0,6.826,6.826,6.826,0,0,1,6.826,0Z" transform="translate(1172.337 -800.115)" fill="#1c4598"/>
    <rect id="Rectangle_5163" data-name="Rectangle 5163" width="37.543" height="1.437" rx="0.719" transform="translate(1196.572 -789.973) rotate(0.271)" fill="#e4e6ea"/>
    <rect id="Rectangle_5164" data-name="Rectangle 5164" width="27.843" height="1.437" rx="0.719" transform="translate(1196.774 -794.822) rotate(0.271)" fill="#e4e6ea"/>
    <rect id="Rectangle_5165" data-name="Rectangle 5165" width="37.543" height="1.437" rx="0.719" transform="translate(1196.799 -800.032) rotate(0.271)" fill="#e4e6ea"/>
    <rect id="Rectangle_5166" data-name="Rectangle 5166" width="20.119" height="18.322" rx="9.161" transform="translate(1169.154 -766.032) rotate(0.271)" fill="#e4e6ea"/>
    <path id="Path_4864" data-name="Path 4864" d="M6.826,0A6.826,6.826,0,1,1,0,6.826,6.826,6.826,0,0,1,6.826,0Z" transform="translate(1172.344 -763.65)" fill="#1c4598"/>
    <rect id="Rectangle_5167" data-name="Rectangle 5167" width="37.543" height="1.437" rx="0.719" transform="translate(1196.579 -753.508) rotate(0.271)" fill="#e4e6ea"/>
    <rect id="Rectangle_5168" data-name="Rectangle 5168" width="27.843" height="1.437" rx="0.719" transform="translate(1196.781 -758.357) rotate(0.271)" fill="#e4e6ea"/>
    <rect id="Rectangle_5169" data-name="Rectangle 5169" width="37.543" height="1.437" rx="0.719" transform="translate(1196.806 -763.566) rotate(0.271)" fill="#e4e6ea"/>
    <rect id="Rectangle_5170" data-name="Rectangle 5170" width="20.119" height="18.322" rx="9.161" transform="translate(1168.982 -729.568) rotate(0.271)" fill="#e4e6ea"/>
    <circle id="Ellipse_249" data-name="Ellipse 249" cx="6.826" cy="6.826" r="6.826" transform="translate(1172.172 -727.185)" fill="#0e4e96"/>
    <rect id="Rectangle_5171" data-name="Rectangle 5171" width="37.543" height="1.437" rx="0.719" transform="translate(1196.406 -717.044) rotate(0.271)" fill="#e4e6ea"/>
    <rect id="Rectangle_5172" data-name="Rectangle 5172" width="27.843" height="1.437" rx="0.719" transform="translate(1196.609 -721.893) rotate(0.271)" fill="#e4e6ea"/>
    <rect id="Rectangle_5173" data-name="Rectangle 5173" width="37.543" height="1.437" rx="0.719" transform="translate(1196.633 -727.102) rotate(0.271)" fill="#e4e6ea"/>
    <path id="Path_4387" data-name="Path 4387" d="M1152.867-867.427l-.767,162.118a16.543,16.543,0,0,0,4.1,11,16.576,16.576,0,0,0,12.441,5.693l54.946.26a46.227,46.227,0,0,1-17.007-6.443c-31.876-20.227-32.768-78.825-32.522-130.671.107-22.626,8.864-37.4,19.712-47.019a62.541,62.541,0,0,1,6.4-4.972q1.562-1.063,3.138-2.008a74.132,74.132,0,0,1,8.307-4.3l-42.053-.2a16.574,16.574,0,0,0-12.6,5.7A16.557,16.557,0,0,0,1152.867-867.427Z" fill="#fff" opacity="0.23"/>
    <g id="Group_6154" data-name="Group 6154">
      <g id="Group_6153" data-name="Group 6153">
        <path id="Path_4388" data-name="Path 4388" d="M1361.495-683.836l9.9,12.468a2.163,2.163,0,0,0,2.681.579h0a2.163,2.163,0,0,0,.938-2.912l-10.129-19.75-6.313,3.74Z" fill="#5b6374"/>
      </g>
    </g>
    <g id="Group_6155" data-name="Group 6155">
      <path id="Rectangle_5174" data-name="Rectangle 5174" d="M0,0H6.562a0,0,0,0,1,0,0V5.3A3.281,3.281,0,0,1,3.281,8.583h0A3.281,3.281,0,0,1,0,5.3V0A0,0,0,0,1,0,0Z" transform="matrix(0.46, -0.888, 0.888, 0.46, 1354.947, -686.985)" fill="#eb8f90"/>
    </g>
    <g id="Group_6157" data-name="Group 6157">
      <g id="Group_6156" data-name="Group 6156">
        <path id="Path_4389" data-name="Path 4389" d="M1266.392-652.35,1256.108-640.2a2.163,2.163,0,0,0-.042,2.743h0a2.163,2.163,0,0,0,3.039.348l17.379-13.806-4.9-5.457Z" fill="#5b6374"/>
      </g>
    </g>
    <g id="Group_6158" data-name="Group 6158">
      <path id="Rectangle_5175" data-name="Rectangle 5175" d="M0,0H6.562a0,0,0,0,1,0,0V5.3A3.281,3.281,0,0,1,3.281,8.583h0A3.281,3.281,0,0,1,0,5.3V0A0,0,0,0,1,0,0Z" transform="translate(1266.856 -658.627) rotate(9.632)" fill="#eb8f90"/>
    </g>
    <g id="Group_6159" data-name="Group 6159">
      <path id="Path_4390" data-name="Path 4390" d="M1285.191-809.912s-7.248,3.944-14.658,8.551c-8.216,5.108-16.565,11.136-13.989,15.8,5.67,10.267,35.018-14.824,35.018-14.824C1295.521-804.985,1290.419-811.19,1285.191-809.912Z" fill="#eb8f90"/>
    </g>
    <g id="Group_6160" data-name="Group 6160">
      <path id="Path_4391" data-name="Path 4391" d="M1272.535-804.135a44.94,44.94,0,0,0,8.618,14.674l15.05-13.295-6.835-9.94Z" fill="#1c4598"/>
    </g>
    <g id="Group_6166" data-name="Group 6166">
      <g id="Group_6161" data-name="Group 6161">
        <path id="Path_4392" data-name="Path 4392" d="M1235.72-808.41s33.193,15.626,28.925,23.511c-4.813,8.891-32.985-19.582-32.985-19.582S1231.016-807.32,1235.72-808.41Z" fill="#eb8f90"/>
      </g>
      <g id="Group_6162" data-name="Group 6162">
        <path id="Path_4393" data-name="Path 4393" d="M1237.77-807.41a7.11,7.11,0,0,0-.645-3.608c-.855-1.578-1.628-2.563-1.569-4.53s-2.271-1.94-2.239-.222.5,4.477-1.726,3.584-4.478-6.311-6.765-3.821c0,0-1.619-2.25-2.517-1.581s.556,2.716.556,2.716-3.283-.2,1.335,4.478c0,0-1.314.64-.533,1.643,1.248,1.6,5.228,3.985,8.737,5.009C1238.106-802.076,1237.77-807.41,1237.77-807.41Z" fill="#eb8f90"/>
      </g>
      <g id="Group_6163" data-name="Group 6163">
        <path id="Path_4394" data-name="Path 4394" d="M1230-810.615l.223-.278c-4.608-3.7-5.23-5.166-5.236-5.18l-.33.132C1224.686-815.879,1225.324-814.371,1230-810.615Z" fill="#eb8f90"/>
      </g>
      <g id="Group_6164" data-name="Group 6164">
        <path id="Path_4395" data-name="Path 4395" d="M1228.431-809.379l.2-.294a37.028,37.028,0,0,1-5.631-5.315l-.271.231A37.329,37.329,0,0,0,1228.431-809.379Z" fill="#eb8f90"/>
      </g>
      <g id="Group_6165" data-name="Group 6165">
        <path id="Path_4396" data-name="Path 4396" d="M1227.664-807.743l.2-.3c-1.579-1.061-3.539-2.485-3.558-2.5l-.21.288C1224.115-810.236,1226.08-808.808,1227.664-807.743Z" fill="#eb8f90"/>
      </g>
    </g>
    <g id="Group_6167" data-name="Group 6167">
      <path id="Path_4397" data-name="Path 4397" d="M1277.554-700.257h0a9.063,9.063,0,0,1-7.144-10.2c3-20.142,6.756-39.983,10.3-54.85l20.384-1.426c-4.121,16.918-9.345,41.486-12.811,59.326A9.069,9.069,0,0,1,1277.554-700.257Z" fill="#63788f"/>
    </g>
    <g id="Group_6168" data-name="Group 6168">
      <path id="Path_4398" data-name="Path 4398" d="M1281.07-717.382h0a9.033,9.033,0,0,0-10.763,7.557c-2.505,17.376-6,39.844-7.5,51.006l15.04,3.095c1.983-12.662,7.252-35.412,10.278-51.1A9.033,9.033,0,0,0,1281.07-717.382Z" fill="#63788f"/>
    </g>
    <g id="Group_6169" data-name="Group 6169">
      <path id="Path_4399" data-name="Path 4399" d="M1311.885-702.34h0a9.064,9.064,0,0,1-9.629-7.9c-2.54-20.2-4.486-40.947-5.077-56.22l19.8-1.385c.589,17.4,1.848,37.614,3.316,55.728A9.068,9.068,0,0,1,1311.885-702.34Z" fill="#63788f"/>
    </g>
    <g id="Group_6170" data-name="Group 6170">
      <path id="Path_4400" data-name="Path 4400" d="M1302.859-715.352h0a9.033,9.033,0,0,0,4.343,12.413c16.038,7.14,35.942,15.783,46.274,20.267l7.071-13.631c-11.644-5.354-31.337-15.779-45.609-22.96A9.033,9.033,0,0,0,1302.859-715.352Z" fill="#63788f"/>
    </g>
    <g id="Group_6171" data-name="Group 6171">
      <path id="Path_4401" data-name="Path 4401" d="M1280.693-765.31s-2.35-40.21,7.324-46.634c5.546-3.682,17.561-3.628,23.973.475,6.471,4.142,4.868,43.629,4.868,43.629Z" fill="#1c4598"/>
    </g>
    <g id="Group_6172" data-name="Group 6172">
      <path id="Path_4402" data-name="Path 4402" d="M1307.352-808.238s-5.357,6.275-10.629,13.228c-5.846,7.709-11.485,16.325-7.413,19.758,8.968,7.559,27.4-26.37,27.4-26.37C1318.761-807.332,1311.777-811.3,1307.352-808.238Z" fill="#eb8f90"/>
    </g>
    <g id="Group_6173" data-name="Group 6173">
      <path id="Path_4403" data-name="Path 4403" d="M1297.6-798.317a36.737,36.737,0,0,0,13.3,10.62l6.014-11.511a8.01,8.01,0,0,0-2.559-10.307l-5.644-3.883Z" fill="#1c4598"/>
    </g>
    <g id="Group_6174" data-name="Group 6174">
      <path id="Path_4404" data-name="Path 4404" d="M1297.05-807.771c-4.191.293-6.444-4.469-5.4-5.673a3.98,3.98,0,0,0,.705-1.28h0a8.282,8.282,0,0,0,.42-2.165l0,0,7.264-7.452c-.111,4.429,1.988,7.386,2.825,9.538S1301.816-808.1,1297.05-807.771Z" fill="#eb8f90"/>
    </g>
    <g id="Group_6175" data-name="Group 6175" opacity="0.14">
      <path id="Path_4405" data-name="Path 4405" d="M1299.053-819.048a7.412,7.412,0,0,1-6.691,4.323,8.282,8.282,0,0,0,.42-2.165l0,0C1292.986-817.028,1300.856-823.177,1299.053-819.048Z" fill="#231f20"/>
    </g>
    <g id="Group_6176" data-name="Group 6176">
      <path id="Path_4406" data-name="Path 4406" d="M1294.361-816.845c-4.05.284-5.293-1.942-5.254-5.306a20.119,20.119,0,0,1,.266-2.834c.082-.526.18-1.069.293-1.622.8-3.96,1.385-7.477,1.385-7.477l11.075.855S1303.862-817.51,1294.361-816.845Z" fill="#eb8f90"/>
    </g>
    <g id="Group_6177" data-name="Group 6177">
      <path id="Path_4407" data-name="Path 4407" d="M1297.328-805.042c3.866-.27,6.93-3.131,9.125-8.53l-.659-.268c-2.39,5.876-5.816,8.58-10.179,8.037-4.723-.588-6.231-6.727-6.245-6.789l-.693.165c.064.272,1.641,6.683,6.85,7.331A9.274,9.274,0,0,0,1297.328-805.042Z" fill="#fff"/>
    </g>
    <g id="Group_6178" data-name="Group 6178">
      <path id="Path_4408" data-name="Path 4408" d="M1312.478-791.208l.306-.642c-.088-.042-8.855-4.256-12.193-8.154l-.541.464C1303.487-795.528,1312.112-791.382,1312.478-791.208Z" fill="#fff"/>
    </g>
    <g id="Group_6179" data-name="Group 6179">
      <path id="Path_4409" data-name="Path 4409" d="M1290.1-744.142l14.809-.45-2.646-12.7s-5.649.2-7.009.295S1290.1-744.142,1290.1-744.142Z" fill="#63788f"/>
    </g>
    <g id="Group_6180" data-name="Group 6180">
      <path id="Path_4410" data-name="Path 4410" d="M1299.876-750.926l.141-.7-5.431-1.1,1.184-13.045-.709-.064-1.242,13.681Z" fill="#5b6374"/>
    </g>
    <g id="Group_6181" data-name="Group 6181">
      <rect id="Rectangle_5176" data-name="Rectangle 5176" width="0.712" height="15.048" transform="matrix(0.905, -0.426, 0.426, 0.905, 1310.626, -766.929)" fill="#5b6374"/>
    </g>
    <g id="Group_6182" data-name="Group 6182">
      <rect id="Rectangle_5177" data-name="Rectangle 5177" width="18.174" height="0.712" transform="matrix(0.453, -0.891, 0.891, 0.453, 1276.726, -749.444)" fill="#5b6374"/>
    </g>
    <g id="Group_6183" data-name="Group 6183">
      <path id="Path_4411" data-name="Path 4411" d="M1262.41-658.536l.869-7.267,16.048,4.4-1.2,6.1Zm1.478-6.361-.693,5.795,14.369,2.957.936-4.749Z" fill="#5b6374"/>
    </g>
    <g id="Group_6184" data-name="Group 6184">
      <path id="Path_4412" data-name="Path 4412" d="M1347.314-684.7l7.606-14.662,6.113,2.892-7.388,14.243Zm7.922-13.724-6.926,13.349,5,1.951,6.754-13.018Z" fill="#5b6374"/>
    </g>
    <g id="Group_6185" data-name="Group 6185">
      <circle id="Ellipse_250" data-name="Ellipse 250" cx="2.873" cy="2.873" r="2.873" transform="translate(1298.944 -825.797)" fill="#eb8f90"/>
    </g>
    <g id="Group_6186" data-name="Group 6186">
      <path id="Path_4413" data-name="Path 4413" d="M1290.786-822.2l3.039.178s-.1,2.692-1.773,2.565S1290.786-822.2,1290.786-822.2Z" fill="#fff"/>
    </g>
    <g id="Group_6187" data-name="Group 6187">
      <circle id="Ellipse_251" data-name="Ellipse 251" cx="0.548" cy="0.548" r="0.548" transform="translate(1294.644 -828.989)" fill="#8e3332"/>
    </g>
    <g id="Group_6188" data-name="Group 6188">
      <circle id="Ellipse_252" data-name="Ellipse 252" cx="0.548" cy="0.548" r="0.548" transform="translate(1291.18 -829.504)" fill="#8e3332"/>
    </g>
    <g id="Group_6189" data-name="Group 6189">
      <path id="Path_4414" data-name="Path 4414" d="M1292.559-824.065a2.2,2.2,0,0,0,.889-.266l-.337-.627a1.075,1.075,0,0,1-1.412-.145c-.194-.341.305-.679.463-.775a2.909,2.909,0,0,0,1.361-3.031l-.7.152.348-.076-.349.074a2.192,2.192,0,0,1-1.033,2.272c-.934.566-.968,1.289-.712,1.737A1.556,1.556,0,0,0,1292.559-824.065Z" fill="#8e3332"/>
    </g>
    <g id="Group_6190" data-name="Group 6190">
      <path id="Path_4415" data-name="Path 4415" d="M1296.661-829.43l.628-.336a2.236,2.236,0,0,0-1.92-1.2l.01.712A1.524,1.524,0,0,1,1296.661-829.43Z" fill="#8e3332"/>
    </g>
    <g id="Group_6191" data-name="Group 6191">
      <path id="Path_4416" data-name="Path 4416" d="M1292.779-830.649l.371-.608a3.025,3.025,0,0,0-2.262-.22l.212.68A2.33,2.33,0,0,1,1292.779-830.649Z" fill="#8e3332"/>
    </g>
    <g id="Group_6197" data-name="Group 6197">
      <g id="Group_6192" data-name="Group 6192">
        <path id="Path_4417" data-name="Path 4417" d="M1268.015-800.184s33.206,14.986,28.327,23.886c-5.5,10.035-32.749-19.328-32.749-19.328S1263.106-798.692,1268.015-800.184Z" fill="#eb8f90"/>
      </g>
      <g id="Group_6193" data-name="Group 6193">
        <path id="Path_4418" data-name="Path 4418" d="M1270.063-799.22a7.9,7.9,0,0,0-.442-3.908c-.783-1.672-1.518-2.7-1.337-4.856s-2.218-1.979-2.291-.1.243,4.868-2,4.033-4.222-6.621-6.729-3.751c0,0-1.528-2.359-2.494-1.57s.406,2.937.406,2.937-3.367-.01,1.1,4.815c0,0-1.391.784-.65,1.832,1.186,1.676,5.137,4.027,8.685,4.925C1270.081-793.406,1270.063-799.22,1270.063-799.22Z" fill="#eb8f90"/>
      </g>
      <g id="Group_6194" data-name="Group 6194">
        <path id="Path_4419" data-name="Path 4419" d="M1262.275-802.255l.228-.274c-4.474-3.719-5.061-5.316-5.066-5.332l-.338.112C1257.121-807.682,1257.686-806.07,1262.275-802.255Z" fill="#eb8f90"/>
      </g>
      <g id="Group_6195" data-name="Group 6195">
        <path id="Path_4420" data-name="Path 4420" d="M1260.582-800.8l.2-.293a32.829,32.829,0,0,1-5.465-5.454l-.28.221A33.23,33.23,0,0,0,1260.582-800.8Z" fill="#eb8f90"/>
      </g>
      <g id="Group_6196" data-name="Group 6196">
        <path id="Path_4421" data-name="Path 4421" d="M1259.692-798.963l.2-.294c-1.56-1.061-3.489-2.493-3.509-2.508l-.212.286C1256.191-801.465,1258.127-800.027,1259.692-798.963Z" fill="#eb8f90"/>
      </g>
    </g>
    <path id="Path_4422" data-name="Path 4422" d="M1133.193-719.41s3.563-.867,1.939-5.323-3.906-4.978-5.254-2.764S1128.861-717.278,1133.193-719.41Z" fill="#0e4e96"/>
    <path id="Path_4423" data-name="Path 4423" d="M1290.667-832.6s3.595,2.723,11.369-.668a9.129,9.129,0,0,0-1.3,7.211l.171,2.166.731-1.981,2.241,1.241s5.353-4.634,3.4-10.416S1289.827-845.778,1290.667-832.6Z" fill="#8e3332"/>
    <circle id="Ellipse_253" data-name="Ellipse 253" cx="6.676" cy="6.676" r="6.676" transform="translate(1303.321 -844.42)" fill="#8e3332"/>
    <circle id="Ellipse_254" data-name="Ellipse 254" cx="1.443" cy="1.443" r="1.443" transform="translate(1295.313 -824.636)" fill="#8e3332" opacity="0.29"/>
    <path id="Path_4424" data-name="Path 4424" d="M1290.443-823.583a1.441,1.441,0,0,1-1.336,1.432,20.119,20.119,0,0,1,.266-2.834A1.442,1.442,0,0,1,1290.443-823.583Z" fill="#8e3332" opacity="0.29"/>
    <g id="Group_6202" data-name="Group 6202">
      <g id="Group_6199" data-name="Group 6199">
        <path id="Path_4425" data-name="Path 4425" d="M1117.425-702.844s-4.33-7.02-4.5-12.132-.431-6.152-3.637-8.666-5.2-4.594-4.286-9.056,0-5.892-3.2-8.406-4.807-6.717-1.687-10.442,10.268-.906,12.173,3.773.214,8.968,5.455,13,2.64,8.362,2.293,11.395,4.287,4.637,3.767,6.976S1120.283-697.3,1117.425-702.844Z" fill="#1c4598"/>
        <g id="Group_6198" data-name="Group 6198">
          <path id="Path_4426" data-name="Path 4426" d="M1119.522-703.355c-1.151-1.458-1.4-3.451-1.6-5.242a31.058,31.058,0,0,1-.141-5.352c.187-3.13.711-6.347-.828-9.242-1.258-2.367-3.381-4.117-4.753-6.406-1.73-2.886-.913-6.316-2.188-9.353-1.418-3.379-4.288-5.792-7.064-8.044-.268-.217-.655.162-.384.381,2.616,2.122,5.321,4.367,6.779,7.484,1.4,2.993.566,6.438,2.138,9.364,1.267,2.359,3.391,4.107,4.753,6.4,1.862,3.135,1.1,6.654.972,10.094a31.216,31.216,0,0,0,.319,5.772,9.18,9.18,0,0,0,1.614,4.523c.216.273.6-.11.384-.381Z" fill="#fff"/>
        </g>
      </g>
      <g id="Group_6201" data-name="Group 6201">
        <path id="Path_4427" data-name="Path 4427" d="M1136.773-700.072s4.41-13.661,2.581-22.374-1.821-10.579,2.555-16.157,6.882-9.92,3.492-17.085-2.446-9.959,1.93-15.537,5.342-13.347-1.477-18.35-17.733,2.724-19.013,11.424,3.356,15.248-3.833,24.234-1,15.231.848,20.213-5.326,9.616-3.476,13.354S1134.241-689.511,1136.773-700.072Z" fill="#1c4598"/>
        <g id="Group_6200" data-name="Group 6200">
          <path id="Path_4428" data-name="Path 4428" d="M1133.653-699.686a14.6,14.6,0,0,0,.883-7.533,54.059,54.059,0,0,0-1.388-8.566c-1.395-5.673-4.579-11.448-3.559-17.441.82-4.818,3.864-8.851,5.437-13.409a15.875,15.875,0,0,0,.784-7.217c-.353-2.906-1.139-5.728-.923-8.682.5-6.813,4.708-12.537,8.7-17.79.21-.278-.258-.55-.466-.276-3.41,4.493-6.867,9.187-8.238,14.757a20.138,20.138,0,0,0-.242,8.138c.471,2.91,1.1,5.761.49,8.7-.995,4.769-4.05,8.767-5.5,13.377a16.192,16.192,0,0,0-.575,7.262,51.294,51.294,0,0,0,2.351,8.471,56.162,56.162,0,0,1,2.291,9.831c.444,3.264.952,7.016-.5,10.1-.148.313.317.59.466.275Z" fill="#fff"/>
        </g>
      </g>
    </g>
  </g>
</svg>
