<svg id="Group_7849" data-name="Group 7849" xmlns="http://www.w3.org/2000/svg" width="20.681" height="20" viewBox="0 0 20.681 20">
  <path id="Path_5796" data-name="Path 5796" d="M395.777,823.98l-6.951-5.051a3.389,3.389,0,0,0-3.984,0l-6.951,5.051a3.388,3.388,0,0,0-1.231,3.789l2.655,8.172a3.389,3.389,0,0,0,3.223,2.342h8.592a3.389,3.389,0,0,0,3.223-2.342l2.655-8.172A3.388,3.388,0,0,0,395.777,823.98Z" transform="translate(-376.493 -818.282)" fill="#ec008c"/>
  <g id="Group_7768" data-name="Group 7768" transform="translate(6.418 6.78)">
    <path id="Path_5797" data-name="Path 5797" d="M417.121,857.749q-.422,0-.52.214a2.6,2.6,0,0,0-.138.624,6.233,6.233,0,0,0-.064.844.33.33,0,0,0,.147.312,1.207,1.207,0,0,0,.55.086.655.655,0,0,0,.4-.1.536.536,0,0,0,.178-.33q.14-.667.575-.667.746,0,.746,1.786a3.3,3.3,0,0,1-.324,1.663.6.6,0,0,1-.538.324q-.361,0-.416-.483a2.067,2.067,0,0,0-.076-.44.615.615,0,0,0-.174-.245.828.828,0,0,0-.587-.19.533.533,0,0,0-.373.1.5.5,0,0,0-.086.373q0,.049-.006.569a2.248,2.248,0,0,0,.22,1.291.357.357,0,0,0,.15.119,2.976,2.976,0,0,0,.4.076.416.416,0,0,1,.269.165.512.512,0,0,1,.11.324q0,.471-.551.605a10.153,10.153,0,0,1-2.232.19,6.856,6.856,0,0,1-1.737-.147.686.686,0,0,1-.349-.245.632.632,0,0,1-.134-.391.54.54,0,0,1,.2-.434,2.308,2.308,0,0,1,.336-.153.7.7,0,0,0,.41-.624,31.618,31.618,0,0,0,.11-3.431,8.563,8.563,0,0,0-.08-1.5.652.652,0,0,0-.385-.477,1.328,1.328,0,0,1-.4-.236.407.407,0,0,1-.095-.29.532.532,0,0,1,.263-.45,1.119,1.119,0,0,1,.648-.18q.245,0,.716.037,1,.079,2.385.079a23.26,23.26,0,0,0,2.991-.122,1.46,1.46,0,0,1,.159-.012.541.541,0,0,1,.41.245,2.4,2.4,0,0,1,.538,1.517.954.954,0,0,1-.177.605.563.563,0,0,1-.465.226.521.521,0,0,1-.324-.086,6.99,6.99,0,0,1-.563-.6,1.274,1.274,0,0,0-.664-.416A7.94,7.94,0,0,0,417.121,857.749Z" transform="translate(-412.558 -856.385)" fill="#fff"/>
  </g>
</svg>
