<svg xmlns="http://www.w3.org/2000/svg" width="146.649" height="50" viewBox="0 0 146.649 50">
  <g id="Group_7905" data-name="Group 7905" transform="translate(-135 -402)">
    <g id="Group_7904" data-name="Group 7904" transform="translate(135 402)">
      <g id="Group_7651" data-name="Group 7651">
        <path id="Path_5410" data-name="Path 5410" d="M847.138,279.2l-.282-3.857a3.147,3.147,0,0,0-1.784-2.777l-8.868-7.706c-.3-.3-2.2-2.431-8.621-2.431h-27.4c-2,0-2.689.631-2.764,2.525l-.69,13.172a1.832,1.832,0,0,0,1.611,2.173l4.115.559.405,1.062a.2.2,0,0,0,.181.135h.168a.141.141,0,0,0,.141-.141s0-.544-.008-.948v-.713a4.194,4.194,0,1,1,8.317.769h22.83v-.769a4.195,4.195,0,1,1,8.317.769h.108a6.352,6.352,0,0,0,1.509-.221l2.031-.61A1.014,1.014,0,0,0,847.138,279.2Zm-7.445-8.7a.354.354,0,0,1-.33.223h-8.153c-1,0-1.377-.43-1.377-1.427v-4.886a.356.356,0,0,1,.356-.356.3.3,0,0,1,.042,0c2.375.282,4.137.938,5.1,1.894l.052.052,4.234,4.107a.354.354,0,0,1,.082.391Zm6.452,5.833H845.9a.473.473,0,0,1-.322-.155l-1.524-1.9c-.068-.085-.035-.155.074-.155h1.435c.6,0,.717.785.724,1l.048,1.017a.188.188,0,0,1-.177.2h-.012Z" transform="translate(-700.49 -233.726)" fill="#22b3fc"/>
        <path id="Path_5405" data-name="Path 5405" d="M700.633,212.957c-1.176-.42-2.346-.817-3.5-1.255-.751-.29-1.48-.63-2.211-.966a.59.59,0,0,1-.372-.747l.017-.048c.251-.948.5-1.9.8-2.831.239-.743.456-.821,1.213-.6.042.012.084.019.145.032.168-.321.326-.646.5-.958.315-.554.408-.6,1-.408q4.814,1.567,9.623,3.152c.6.2.795.435.643,1.035a23.922,23.922,0,0,1-.939,2.919c-.233.588-.546.663-1.154.488-3.279-.944-6.5-2.064-9.666-3.327-.529-.212-.579-.3-.531-.869a5.7,5.7,0,0,1,.113-.687c.045-.215.11-.425.172-.658l-.352-.137c-.11.275-.232.531-.315.8q-.251.821-.464,1.654a.554.554,0,0,0,.338.7,32.21,32.21,0,0,0,5.194,1.971.579.579,0,0,1,.467.84c-.056.2-.131.4-.193.6a.861.861,0,0,0,.016.7.592.592,0,0,1,.016.286,29.7,29.7,0,0,1-1.707,6.686,2.163,2.163,0,0,1-.469.739,1.147,1.147,0,0,1-1.379.15,1.2,1.2,0,0,1-.558-1.34,23.458,23.458,0,0,1,1.631-4.469c.362-.731.744-1.452,1.12-2.177a.824.824,0,0,1,.17-.241C700.465,213.592,700.558,213.838,700.633,212.957Z" transform="translate(-647.642 -204.064)" fill="#ec008c" fill-rule="evenodd"/>
        <path id="Union_9" data-name="Union 9" d="M680.967,220.753a1.632,1.632,0,0,0,.473-2.259v0a1.549,1.549,0,0,0-.148-.193l-2.842-3.257a.784.784,0,0,1,.073-1.106h0a.746.746,0,0,1,.105-.077l1.014-.628a.694.694,0,0,0,.224-.956l0,0-.755-1.2-6.4,3.973.755,1.2a.7.7,0,0,0,.963.223l1.332-.828a.791.791,0,0,1,1.09.255h0a.717.717,0,0,1,.056.106l1.708,4.012a1.622,1.622,0,0,0,2.127.857h0A1.617,1.617,0,0,0,680.967,220.753Zm-.263-1.4a.754.754,0,0,1-.9.57h0a.755.755,0,0,1-.569-.9h0a.756.756,0,0,1,.9-.57h0a.753.753,0,0,1,.567.9h0Zm-2.177-9.207-2.709-4.318a.7.7,0,0,0-.965-.223h0l-.439.273.029.64-.608-.281-2.279,1.416c.273.976.613,2.161.613,2.161l-1.433-1.653-1.1.683a.7.7,0,0,0-.224.956h0l0,0,2.71,4.318Z" transform="translate(-634.604 -204.282)" fill="#ffd000"/>
        <path id="Path_99" data-name="Path 99" d="M600.377,222.734a2.94,2.94,0,1,0-2.94-2.941h0v0A2.94,2.94,0,0,0,600.377,222.734Z" transform="translate(-597.437 -210.156)" fill="#28aa4f"/>
        <path id="Path_98" data-name="Path 98" d="M600.456,207.224a2.12,2.12,0,1,0-2.119-2.125h0a2.119,2.119,0,0,0,2.114,2.125Z" transform="translate(-597.902 -202.983)" fill="#ffd000"/>
        <path id="Path_97" data-name="Path 97" d="M624.728,211.03A3.629,3.629,0,1,1,621.1,207.4h0A3.628,3.628,0,0,1,624.728,211.03Z" transform="translate(-607.797 -205.268)" fill="#22b3fc"/>
        <path id="Path_5442" data-name="Path 5442" d="M848.958,218.681c1.606-1.134,1.791-3.077,2.378-5.75-2.447-.279-4.463-.1-5.739,1.654-.233-2.226-2.249-4.8-3.771-5.894a4.2,4.2,0,0,1-.1,2.1c-.656,1.922-2.4,2.76-1.475,4.992a7.577,7.577,0,0,0-5.107-1.044c2.051,1.2.411,5.127,3.209,5.816-1.295,1.225-1.365,3.838-2.907,5.484,2.614-1.29,4.6.148,6.4-1.959-.439,3.276,2.922,5.087,4.008,6.7.809-1.823,1.811-4.714,1.188-7.195,2.713,2.265,5.36-1.214,7.249-1.412C852.821,220.008,850.965,218.7,848.958,218.681Z" transform="translate(-720.363 -205.935)" fill="#28aa4f" fill-rule="evenodd"/>
      </g>
      <path id="Path_5409" data-name="Path 5409" d="M879.912,292.148a3.473,3.473,0,1,0,3.473,3.473,3.472,3.472,0,0,0-3.473-3.473Zm0,5.237a1.764,1.764,0,1,1,1.764-1.764h0a1.764,1.764,0,0,1-1.763,1.764h0Z" transform="translate(-741.72 -249.094)" fill="#22b3fc"/>
    </g>
    <path id="Path_5677" data-name="Path 5677" d="M737.12,251.85a3.737,3.737,0,0,0,.829-2.366,5.6,5.6,0,0,0-.507-2.228,8,8,0,0,0-1.128-1.876,4.034,4.034,0,0,0-3.2-1.7,3.886,3.886,0,0,0-1.41.28l-.026.01c-.544-.1-1.006-.175-1.4-.22a5.176,5.176,0,0,0-1.017-2.884q.22-.119.435-.25a6.911,6.911,0,0,0,1.914-1.723,4.528,4.528,0,0,0,.98-2.741,4.057,4.057,0,0,0-.724-2.342,4.848,4.848,0,0,0,1.2-3.279,5.677,5.677,0,0,0-2.763-4.785,9.467,9.467,0,0,0-5.282-1.521,9.832,9.832,0,0,0-6.551,2.321,3.315,3.315,0,0,0-.378-.792,4.19,4.19,0,0,0,.448-1.9,3.868,3.868,0,0,0-1.85-3.3,5.68,5.68,0,0,0-3.1-.811,10.343,10.343,0,0,0-3.835.8,5.008,5.008,0,0,0-2.65,2.153c-.036-.058-.076-.117-.119-.174a3.05,3.05,0,0,0-2.546-1.219h-.986a3.7,3.7,0,0,0-1.751.417c-.059.03-.116.065-.172.1l-4.964,3.121a3.706,3.706,0,0,0-2.173-.719,3.9,3.9,0,0,0-1.41.281l-.028.01a12.873,12.873,0,0,0-2.286-.278,6.935,6.935,0,0,0-5.482,2.437c-.069.081-.135.164-.2.247a6.437,6.437,0,0,0-1.178-1.111,8.574,8.574,0,0,0-5.161-1.586,12.324,12.324,0,0,0-5.679,1.393,2.653,2.653,0,0,0-.18-.248,3.247,3.247,0,0,0-2.645-1.145h-.219a3.347,3.347,0,0,0-.6-1.7,3.063,3.063,0,0,0-2.548-1.222h-.986a3.713,3.713,0,0,0-1.751.417c-.059.03-.117.064-.173.1l-5.572,3.5c-.082.054-.161.108-.238.167a6.98,6.98,0,0,0-4-1.181,6.559,6.559,0,0,0-2.961.658,3.464,3.464,0,0,0-2.028-.647,8.765,8.765,0,0,0-2.162.375c-.788.208-1.616.465-2.46.763a10.711,10.711,0,0,0-2.272,1.033,6.963,6.963,0,0,0-.791-.683,8.585,8.585,0,0,0-5.162-1.586,12.164,12.164,0,0,0-3.369.475,7.422,7.422,0,0,0-1.575-3.656,3.675,3.675,0,0,0-2.9-1.5,5.46,5.46,0,0,0-.628.042c-.036,0-.07.009-.106.016a42.6,42.6,0,0,1-5.533.21c-1.765,0-3.289-.054-4.532-.15-.705-.055-1.239-.081-1.635-.081a4.827,4.827,0,0,0-2.792.825,3.717,3.717,0,0,0-1.677,3.085,3.4,3.4,0,0,0,.911,2.4,3.92,3.92,0,0,0,.958.732c.02.359.041.939.041,1.846,0,3.465-.073,5.135-.138,5.939a3.17,3.17,0,0,0-.5.306l-.119.1a3.723,3.723,0,0,0-1.334,2.894,3.921,3.921,0,0,0,.808,2.383,4.026,4.026,0,0,0,2.015,1.415,12.306,12.306,0,0,0,3.2.4l-5.05,2.894a.247.247,0,0,0-.124.213v.742a.247.247,0,0,0,.247.247.244.244,0,0,0,.123-.034l6.289-3.649a.246.246,0,0,1,.314.057l7.2,8.777a1.226,1.226,0,0,1,.273.768v3.228a.247.247,0,0,0,.247.245.257.257,0,0,0,.122-.033l1.445-.834a10.522,10.522,0,0,0,.463,2.007l-4.256,2.459a.131.131,0,0,1-.108,0,.1.1,0,0,1-.048-.1v-5.635a2.4,2.4,0,0,0-.553-1.531l-5.2-6.253a1.025,1.025,0,0,0-1.3-.229l-4.5,2.621a1.51,1.51,0,0,0-.75,1.3v4.789a1.507,1.507,0,0,0,.75,1.3l10.558,6.09,0,0a1.5,1.5,0,0,0,1.5,0l4.855-2.8a4.429,4.429,0,0,0,1.219,1.242l.022.015a10.057,10.057,0,0,0,3.384,1.24,18.478,18.478,0,0,0,3.845.429,11.584,11.584,0,0,0,7.284-2.236,9.01,9.01,0,0,0,.872-.773,8.741,8.741,0,0,0,.867.872,8.961,8.961,0,0,0,6.025,2.135A9.924,9.924,0,0,0,658.581,260a4.515,4.515,0,0,0,1.5.839,13.154,13.154,0,0,0,4.13.52,20.31,20.31,0,0,0,3.972-.3A4.43,4.43,0,0,0,670.5,259.8a3.856,3.856,0,0,0,1.083-2.7,3.667,3.667,0,0,0-.311-1.506,5.476,5.476,0,0,0,3.2-1.568l1.969,3.74a12.274,12.274,0,0,0,1.658,2.388,3.8,3.8,0,0,0,2.919,1.317,4.069,4.069,0,0,0,3.046-1.409,11.6,11.6,0,0,0,1.653-2.565l.843-1.64c.089,0,.176.014.266.014h.016a3.447,3.447,0,0,0-.27,1.376,3.679,3.679,0,0,0,.9,2.426,4.053,4.053,0,0,0,1.971,1.247l.035.009a15.782,15.782,0,0,0,4.09.435,10.954,10.954,0,0,0,3.959-.579,4.582,4.582,0,0,0,1.647-1.083,9.142,9.142,0,0,0,5.55,1.745,9.626,9.626,0,0,0,5.127-1.367,7.27,7.27,0,0,0,1.407-1.126c.125.123.254.241.386.357a8.956,8.956,0,0,0,6.025,2.135,9.9,9.9,0,0,0,5.855-1.831,5.15,5.15,0,0,0,.6.649,3.927,3.927,0,0,0,2.679.975,6.315,6.315,0,0,0,.869-.074l.028,0c.144.014.43.043.989.107a17.76,17.76,0,0,0,2.043.177,7.582,7.582,0,0,0,4.749-1.538,6.035,6.035,0,0,0,2.518-4.926A5.769,5.769,0,0,0,737.12,251.85Zm-117.612,3.542a.5.5,0,0,1-.749.435l-1.8-1.042a1.849,1.849,0,0,1-.927-1.6v-2.338h0v-.007a.5.5,0,0,1,.747-.429l1.806,1.042a1.855,1.855,0,0,1,.926,1.6Z" transform="translate(-469.596 190.462)" fill="#1c4598"/>
    <path id="Union_77" data-name="Union 77" d="M682.949,261.242a9.481,9.481,0,0,1-1.3-1.873l-3.454-6.558a2.792,2.792,0,0,0-.542-.773,1.726,1.726,0,0,0-.724-.358q-.925-.268-.926-1t1.144-1.083a13.862,13.862,0,0,1,3.613-.34,11.353,11.353,0,0,1,3.048.3q.979.3.98.917a1.132,1.132,0,0,1-.463.839,2.5,2.5,0,0,0-.377.4.627.627,0,0,0-.085.34,3.459,3.459,0,0,0,.536,1.376q.535.937,1,.936a.628.628,0,0,0,.5-.231,9,9,0,0,0,.705-1.193,2.578,2.578,0,0,0,.378-1.071,1.111,1.111,0,0,0-.39-.693,1.245,1.245,0,0,1-.413-.815q0-.585.773-.839a8.866,8.866,0,0,1,2.536-.256q2.482,0,2.481,1.071,0,.62-.888.9a2.362,2.362,0,0,0-.943.475,6.392,6.392,0,0,0-.773,1.278l-3.151,6.132a9.538,9.538,0,0,1-1.24,1.976,1.487,1.487,0,0,1-1.1.554A1.154,1.154,0,0,1,682.949,261.242Zm48.917.231c-.788-.089-1.229-.133-1.326-.133a2.054,2.054,0,0,0-.365.037,4.413,4.413,0,0,1-.511.048,1.309,1.309,0,0,1-.9-.292,4.144,4.144,0,0,1-.924-1.418,4.26,4.26,0,0,1-.426-1.661q0-1.119.875-1.119a.988.988,0,0,1,.628.226,15.406,15.406,0,0,1,1.2,1.2,4.371,4.371,0,0,0,.828.736,1.333,1.333,0,0,0,.706.2.942.942,0,0,0,.645-.212.718.718,0,0,0,.241-.566q0-.546-.936-1a8.779,8.779,0,0,1-2.829-1.98,3.536,3.536,0,0,1-.869-2.36,3.727,3.727,0,0,1,.888-2.495,4.287,4.287,0,0,1,3.454-1.5,11.945,11.945,0,0,1,1.984.268,2.79,2.79,0,0,0,.462.048,3.009,3.009,0,0,0,.8-.218,1.33,1.33,0,0,1,.474-.111,1.546,1.546,0,0,1,1.133.718,5.317,5.317,0,0,1,.754,1.253,3.068,3.068,0,0,1,.289,1.181,1.061,1.061,0,0,1-.34.808,1.184,1.184,0,0,1-.851.322,1.416,1.416,0,0,1-.761-.206,7.909,7.909,0,0,1-1.077-.914,2.144,2.144,0,0,0-1.29-.754.852.852,0,0,0-.839.839q0,.6,1.143,1.12a10.56,10.56,0,0,1,3.151,2.019,3.082,3.082,0,0,1,.924,2.263,3.428,3.428,0,0,1-1.484,2.823,4.965,4.965,0,0,1-3.127.986A16.018,16.018,0,0,1,731.865,261.473Zm-15.621-1.325a6.225,6.225,0,0,1-2.1-4.66,5.91,5.91,0,0,1,1.241-3.674,6.521,6.521,0,0,1,2.725-2.1,6.83,6.83,0,0,1,2.689-.524,6.034,6.034,0,0,1,3.93,1.314,5.276,5.276,0,0,1,1.314,1.557,4.086,4.086,0,0,1,.571,2,2.327,2.327,0,0,1-.328,1.295.983.983,0,0,1-.851.506h-5.718q-.378,0-.378.328a1.953,1.953,0,0,0,.858,1.49,2.86,2.86,0,0,0,1.844.7,4.312,4.312,0,0,0,1.3-.225,4.214,4.214,0,0,0,1.175-.553,1.292,1.292,0,0,1,.656-.292.829.829,0,0,1,.62.39,1.289,1.289,0,0,1,.3.8,2.213,2.213,0,0,1-1.094,1.69,7.246,7.246,0,0,1-4.465,1.449,6.339,6.339,0,0,1-4.282-1.485Zm3.358-8.237a1.692,1.692,0,0,0-.365,1.011.631.631,0,0,0,.176.511.979.979,0,0,0,.615.145h1.228c.518,0,.779-.241.779-.718a1.53,1.53,0,0,0-.378-1.071,1.273,1.273,0,0,0-.986-.413,1.251,1.251,0,0,0-1.07.536Zm-16.29,8.261a5.818,5.818,0,0,1-2.263-4.708,5.732,5.732,0,0,1,2.1-4.55,7.219,7.219,0,0,1,4.877-1.729,6.829,6.829,0,0,1,3.821,1.083,3.023,3.023,0,0,1,1.569,2.566,2.2,2.2,0,0,1-.731,1.716,2.356,2.356,0,0,1-1.642.621,1.735,1.735,0,0,1-1.521-.731,5.765,5.765,0,0,1-.463-1.179,1.263,1.263,0,0,0-1.255-1.023,1.381,1.381,0,0,0-1.126.583,2.262,2.262,0,0,0-.457,1.436,3.713,3.713,0,0,0,1.046,2.592,2.811,2.811,0,0,0,2.142.912,4.276,4.276,0,0,0,1.022-.1,6.19,6.19,0,0,0,1.083-.42.833.833,0,0,1,.377-.085.925.925,0,0,1,.73.39,1.4,1.4,0,0,1,.316.912,1.945,1.945,0,0,1-.451,1.15,4.2,4.2,0,0,1-1.18,1.053,6.991,6.991,0,0,1-3.735.974,6.485,6.485,0,0,1-4.269-1.459Zm-51.435-.025a6.1,6.1,0,0,1-1.387-1.764,6.177,6.177,0,0,1-.719-2.9,5.908,5.908,0,0,1,1.242-3.674,6.519,6.519,0,0,1,2.725-2.1,6.833,6.833,0,0,1,2.689-.524,6.033,6.033,0,0,1,3.929,1.314,5.247,5.247,0,0,1,1.314,1.557,4.079,4.079,0,0,1,.571,2,2.322,2.322,0,0,1-.328,1.295.983.983,0,0,1-.851.506h-5.718q-.378,0-.378.328a1.952,1.952,0,0,0,.858,1.49,2.859,2.859,0,0,0,1.843.7,4.3,4.3,0,0,0,1.3-.225,4.218,4.218,0,0,0,1.174-.553,1.284,1.284,0,0,1,.657-.292.831.831,0,0,1,.62.39,1.3,1.3,0,0,1,.3.8,2.214,2.214,0,0,1-1.095,1.69,7.249,7.249,0,0,1-4.465,1.449,6.338,6.338,0,0,1-4.282-1.484Zm3.358-8.237a1.7,1.7,0,0,0-.365,1.011.631.631,0,0,0,.176.511.98.98,0,0,0,.615.145h1.229c.518,0,.778-.241.778-.718a1.53,1.53,0,0,0-.378-1.071,1.275,1.275,0,0,0-.985-.413,1.251,1.251,0,0,0-1.071.536Zm-17.409,9.35a7.819,7.819,0,0,1-2.493-.869,3.389,3.389,0,0,1-1.054-1.7,7.535,7.535,0,0,1-.467-2.548,1.416,1.416,0,0,1,.241-.9.933.933,0,0,1,.766-.39,1.208,1.208,0,0,1,.888.475,17.6,17.6,0,0,1,1.2,1.715,3.3,3.3,0,0,0,1.43,1.131,4.787,4.787,0,0,0,2.028.451,2.807,2.807,0,0,0,1.459-.335.983.983,0,0,0,.56-.857,1.05,1.05,0,0,0-.438-.841,4.417,4.417,0,0,0-1.423-.656,19.058,19.058,0,0,1-2.653-1,8.042,8.042,0,0,1-1.7-1.15,5.069,5.069,0,0,1-1.922-3.869,4.679,4.679,0,0,1,.5-2.086,5.223,5.223,0,0,1,1.411-1.759,7.5,7.5,0,0,1,4.988-1.715,11.87,11.87,0,0,1,3.283.619,1.412,1.412,0,0,0,.39.073,3.661,3.661,0,0,0,.729-.219,1.18,1.18,0,0,1,.415-.072q.814,0,1.721,1.29a4.313,4.313,0,0,1,.907,2.456,1.682,1.682,0,0,1-.409,1.149,1.264,1.264,0,0,1-.99.47,1.452,1.452,0,0,1-.791-.193,13.932,13.932,0,0,1-1.339-1.156,4.277,4.277,0,0,0-2.871-1.362,1.686,1.686,0,0,0-1.089.328,1.054,1.054,0,0,0-.407.864q0,1.058,1.861,1.593a27.066,27.066,0,0,1,3.224,1.083q3.1,1.508,3.1,4.442a5.124,5.124,0,0,1-2.117,4.233,8.978,8.978,0,0,1-5.657,1.679,15.648,15.648,0,0,1-3.284-.375Zm55.207-.055a1.386,1.386,0,0,1-.688-.427,1.032,1.032,0,0,1-.26-.693.853.853,0,0,1,.134-.511,3.674,3.674,0,0,1,.681-.584,1.551,1.551,0,0,0,.536-.912,8.361,8.361,0,0,0,.158-1.887q0-.4-.055-1.5t-.079-1.283a1.013,1.013,0,0,0-.682-.766,1.055,1.055,0,0,1-.754-.974q0-.765.986-1.143a22.272,22.272,0,0,1,2.92-.888,11.379,11.379,0,0,1,2.409-.365q.669,0,.669.755v7.069a3.6,3.6,0,0,0,.153,1.229,1.637,1.637,0,0,0,.614.717,2.057,2.057,0,0,1,.5.456.834.834,0,0,1,.128.48q0,1.57-3.978,1.569a13.493,13.493,0,0,1-3.4-.338Zm-29.246-.037a1.232,1.232,0,0,1-1-1.18,1.4,1.4,0,0,1,.73-1.133,1.8,1.8,0,0,0,.487-.42,1.2,1.2,0,0,0,.182-.517,28.231,28.231,0,0,0,.193-4.1,1.842,1.842,0,0,0-.121-.785.876.876,0,0,0-.487-.383q-.863-.338-.864-.986a1.216,1.216,0,0,1,.6-1,7.229,7.229,0,0,1,2-.833,11.847,11.847,0,0,1,3.186-.572c.43,0,.692.061.785.182a3.276,3.276,0,0,1,.25,1.169c.041.357.166.536.377.536.162,0,.316-.118.462-.353a2.926,2.926,0,0,1,2.544-1.521,2.44,2.44,0,0,1,1.813.718,2.76,2.76,0,0,1,.559.907,2.7,2.7,0,0,1-.048,2.238,2.96,2.96,0,0,1-.693.992,2.663,2.663,0,0,1-1.91.742,2.236,2.236,0,0,1-1.042-.219,5.269,5.269,0,0,1-1.1-.888.714.714,0,0,0-.475-.255.441.441,0,0,0-.443.382,7.68,7.68,0,0,0-.1,1.612A15.255,15.255,0,0,0,669.8,258a.989.989,0,0,0,.238.5,1.768,1.768,0,0,0,.65.286q1.1.33,1.095,1.144a1.221,1.221,0,0,1-.352.869,1.738,1.738,0,0,1-.937.493,18.076,18.076,0,0,1-3.428.241,10.831,10.831,0,0,1-3.275-.373Zm29.172-13.005a1.364,1.364,0,0,1-.7-1.217q0-1.047,1.5-1.642a7.7,7.7,0,0,1,2.849-.608,3.106,3.106,0,0,1,1.678.395,1.207,1.207,0,0,1,.62,1.065,1.66,1.66,0,0,1-.937,1.484,7.015,7.015,0,0,1-3.589.864,2.551,2.551,0,0,1-1.415-.341Zm30.183-7.459A5.818,5.818,0,0,1,720.881,236a5.731,5.731,0,0,1,2.1-4.55,7.225,7.225,0,0,1,4.876-1.727,6.817,6.817,0,0,1,3.82,1.083,3.021,3.021,0,0,1,1.569,2.566,2.2,2.2,0,0,1-.73,1.716,2.354,2.354,0,0,1-1.642.62,1.738,1.738,0,0,1-1.521-.731,5.91,5.91,0,0,1-.461-1.18,1.263,1.263,0,0,0-1.255-1.023,1.379,1.379,0,0,0-1.125.583,2.262,2.262,0,0,0-.456,1.436,3.7,3.7,0,0,0,1.046,2.591,2.8,2.8,0,0,0,2.142.913,4.3,4.3,0,0,0,1.021-.1,6.309,6.309,0,0,0,1.084-.42.83.83,0,0,1,.376-.085.926.926,0,0,1,.731.39,1.4,1.4,0,0,1,.317.912,1.947,1.947,0,0,1-.451,1.149,4.224,4.224,0,0,1-1.181,1.054,6.99,6.99,0,0,1-3.734.973,6.48,6.48,0,0,1-4.268-1.461Zm-19.816.359a3.783,3.783,0,0,1-1.181-2.9v-5.62a.315.315,0,0,0-.413-.414h-1.253c-.236,0-.386-.038-.45-.115a.96.96,0,0,1-.1-.542v-.535a.617.617,0,0,1,.28-.536l5.572-3.5a1.083,1.083,0,0,1,.511-.109h.986a.483.483,0,0,1,.407.14,1.013,1.013,0,0,1,.1.554v1.642a.671.671,0,0,0,.116.474.752.752,0,0,0,.492.11h2.251a.753.753,0,0,1,.584.164,1.217,1.217,0,0,1,.134.7v.718a1.407,1.407,0,0,1-.17.809.737.737,0,0,1-.62.225h-2.2a.475.475,0,0,0-.584.584v4.112a1.88,1.88,0,0,0,.359,1.193,1.11,1.11,0,0,0,.917.462,2.777,2.777,0,0,0,1.255-.438.7.7,0,0,1,.366-.109.67.67,0,0,1,.534.353,1.316,1.316,0,0,1,.244.766,1.932,1.932,0,0,1-.828,1.449,6.24,6.24,0,0,1-4.185,1.472,4.4,4.4,0,0,1-3.128-1.1Zm-10.194.943c-.788-.089-1.229-.133-1.327-.133a2.194,2.194,0,0,0-.364.036,4.123,4.123,0,0,1-.511.048,1.3,1.3,0,0,1-.9-.292,4.135,4.135,0,0,1-.925-1.418,4.241,4.241,0,0,1-.426-1.661q0-1.118.875-1.119a.988.988,0,0,1,.628.226,15.316,15.316,0,0,1,1.2,1.2,4.383,4.383,0,0,0,.828.736,1.33,1.33,0,0,0,.705.2.948.948,0,0,0,.646-.212.718.718,0,0,0,.241-.566q0-.545-.936-1a8.785,8.785,0,0,1-2.829-1.98,3.541,3.541,0,0,1-.869-2.361,3.726,3.726,0,0,1,.888-2.494,4.285,4.285,0,0,1,3.455-1.5,11.886,11.886,0,0,1,1.983.268,2.656,2.656,0,0,0,.463.048,2.969,2.969,0,0,0,.8-.219,1.361,1.361,0,0,1,.474-.11,1.544,1.544,0,0,1,1.132.718,5.374,5.374,0,0,1,.754,1.255,3.072,3.072,0,0,1,.289,1.18,1.065,1.065,0,0,1-.34.809,1.19,1.19,0,0,1-.851.322,1.42,1.42,0,0,1-.76-.206,8.092,8.092,0,0,1-1.077-.913,2.142,2.142,0,0,0-1.29-.754.851.851,0,0,0-.839.839q0,.6,1.143,1.119a10.551,10.551,0,0,1,3.152,2.02,3.08,3.08,0,0,1,.924,2.263,3.428,3.428,0,0,1-1.484,2.823,4.968,4.968,0,0,1-3.126.986,16.405,16.405,0,0,1-1.726-.161Zm-10.864-.718a.679.679,0,0,0-.474-.316,1.211,1.211,0,0,0-.645.3,4.563,4.563,0,0,1-2.761.888,4.444,4.444,0,0,1-2.579-.682,3.333,3.333,0,0,1-1.4-2.689,3.01,3.01,0,0,1,1.022-2.238,6.68,6.68,0,0,1,4.77-1.545,1.734,1.734,0,0,0,.888-.14c.122-.093.183-.31.183-.651a4.748,4.748,0,0,0-.268-1.867.9.9,0,0,0-.876-.579,1.037,1.037,0,0,0-.65.218,4.119,4.119,0,0,0-.712.8,2.937,2.937,0,0,1-2.263,1.545,1.366,1.366,0,0,1-.973-.353,1.209,1.209,0,0,1-.378-.924,1.874,1.874,0,0,1,.469-1.168,4.124,4.124,0,0,1,1.272-1.022,9.675,9.675,0,0,1,4.6-1.168,5.938,5.938,0,0,1,3.589,1.071,3.179,3.179,0,0,1,1.09,1.308,5.339,5.339,0,0,1,.31,2.028l-.024,1.813a6.973,6.973,0,0,0,.267,2.445.824.824,0,0,0,.256.341,1.672,1.672,0,0,0,.511.134c.259.04.39.21.389.511a2.072,2.072,0,0,1-.468,1.217,3.9,3.9,0,0,1-1.211,1.057,3.723,3.723,0,0,1-1.911.536,2.51,2.51,0,0,1-2.019-.878Zm-2.523-4.1a1.512,1.512,0,0,0-.4,1.046,1.487,1.487,0,0,0,.281.944.893.893,0,0,0,.742.358q.973,0,.973-1.642a1.954,1.954,0,0,0-.14-.9.586.586,0,0,0-.531-.241,1.211,1.211,0,0,0-.929.434Zm-14.081,3.875a3.783,3.783,0,0,1-1.181-2.9v-5.62a.315.315,0,0,0-.413-.414h-1.255c-.235,0-.386-.038-.449-.115a.952.952,0,0,1-.1-.542v-.536a.614.614,0,0,1,.28-.535l5.572-3.5a1.08,1.08,0,0,1,.51-.109h.984a.483.483,0,0,1,.409.14,1.013,1.013,0,0,1,.1.554v1.642a.677.677,0,0,0,.115.474.759.759,0,0,0,.494.11h2.25a.757.757,0,0,1,.584.164,1.218,1.218,0,0,1,.134.7v.718a1.407,1.407,0,0,1-.17.809.737.737,0,0,1-.62.225h-2.2a.475.475,0,0,0-.583.584v4.112a1.881,1.881,0,0,0,.359,1.193,1.11,1.11,0,0,0,.917.462,2.772,2.772,0,0,0,1.253-.438.7.7,0,0,1,.365-.109.675.675,0,0,1,.536.353,1.327,1.327,0,0,1,.241.766,1.933,1.933,0,0,1-.827,1.449,6.241,6.241,0,0,1-4.185,1.472,4.4,4.4,0,0,1-3.124-1.1Zm-25.828.225a.677.677,0,0,0-.475-.316,1.205,1.205,0,0,0-.644.3,4.573,4.573,0,0,1-2.763.888,4.448,4.448,0,0,1-2.579-.683,3.333,3.333,0,0,1-1.4-2.688A3.007,3.007,0,0,1,633,236.556a6.674,6.674,0,0,1,4.769-1.545,1.742,1.742,0,0,0,.888-.14c.121-.093.182-.31.182-.652a4.73,4.73,0,0,0-.269-1.867.9.9,0,0,0-.876-.579,1.039,1.039,0,0,0-.65.218,4.13,4.13,0,0,0-.712.8,2.936,2.936,0,0,1-2.263,1.545,1.37,1.37,0,0,1-.974-.353,1.209,1.209,0,0,1-.377-.925,1.871,1.871,0,0,1,.469-1.168,4.156,4.156,0,0,1,1.272-1.022,9.684,9.684,0,0,1,4.6-1.168,5.945,5.945,0,0,1,3.59,1.071,3.2,3.2,0,0,1,1.089,1.308,5.358,5.358,0,0,1,.31,2.028l-.025,1.813a6.942,6.942,0,0,0,.268,2.445.823.823,0,0,0,.255.341,1.657,1.657,0,0,0,.511.134.445.445,0,0,1,.393.493c0,.006,0,.012,0,.018a2.063,2.063,0,0,1-.469,1.217,3.879,3.879,0,0,1-1.211,1.057,3.721,3.721,0,0,1-1.91.536,2.507,2.507,0,0,1-2.019-.878Zm-2.524-4.1a1.513,1.513,0,0,0-.4,1.046,1.492,1.492,0,0,0,.28.944.9.9,0,0,0,.743.358q.973,0,.973-1.642a1.943,1.943,0,0,0-.141-.9.586.586,0,0,0-.528-.241,1.215,1.215,0,0,0-.932.435Zm8.825,3.505a.8.8,0,0,1,.1-.445,2.237,2.237,0,0,1,.493-.432,1.008,1.008,0,0,0,.4-.528,9.724,9.724,0,0,0,.158-1.467q.084-1.388.084-2.907a2.974,2.974,0,0,0-.128-1.1,1.989,1.989,0,0,0-.735-.638.915.915,0,0,1-.1-1.6,7.988,7.988,0,0,1,1.752-.785q1.168-.414,2.251-.7a7.122,7.122,0,0,1,1.484-.286.807.807,0,0,1,.615.268.9.9,0,0,1,.25.633c0,.025,0,.126-.013.3a1.71,1.71,0,0,0-.011.171q0,.583.486.584c.193,0,.4-.155.62-.463a3.471,3.471,0,0,1,3.042-1.508,4.322,4.322,0,0,1,2.628.8,3.112,3.112,0,0,1,1.071,1.344,7.54,7.54,0,0,1,.376,2.27l.17,4.282a1.745,1.745,0,0,0,.152.718,6.2,6.2,0,0,0,.749.888.776.776,0,0,1,.182.548q0,.8-.961,1.119a12.571,12.571,0,0,1-3.431.316,6.77,6.77,0,0,1-2.373-.29,1.026,1.026,0,0,1-.717-.986.685.685,0,0,1,.073-.359,6.088,6.088,0,0,1,.486-.566q.487-.511.488-3.406a5.992,5.992,0,0,0-.39-2.483,1.417,1.417,0,0,0-1.961-.414,1.434,1.434,0,0,0-.326.294,4.138,4.138,0,0,0-.3,1.9v2.408a3.546,3.546,0,0,0,.091.986,5.979,5.979,0,0,0,.6,1.034.947.947,0,0,1,.135.5q0,.716-1,1.057a10.393,10.393,0,0,1-3.115.34q-3.384,0-3.384-1.4Zm66.727,1.046a1.383,1.383,0,0,1-.688-.427,1.028,1.028,0,0,1-.262-.693.849.849,0,0,1,.133-.511,3.734,3.734,0,0,1,.682-.584,1.559,1.559,0,0,0,.534-.913,8.329,8.329,0,0,0,.158-1.883c0-.269-.017-.768-.054-1.5s-.063-1.163-.08-1.283a1.009,1.009,0,0,0-.681-.766,1.054,1.054,0,0,1-.755-.974q0-.766.986-1.143a22.466,22.466,0,0,1,2.92-.888,11.442,11.442,0,0,1,2.409-.365q.669,0,.669.755v7.066a3.622,3.622,0,0,0,.153,1.229,1.643,1.643,0,0,0,.615.718,2.1,2.1,0,0,1,.5.456.839.839,0,0,1,.127.48q0,1.571-3.977,1.569a13.468,13.468,0,0,1-3.395-.338Zm-95.121.048a1.361,1.361,0,0,1-.693-.486,1.265,1.265,0,0,1-.268-.78,1.076,1.076,0,0,1,.386-.864,4.646,4.646,0,0,1,.67-.3,1.4,1.4,0,0,0,.815-1.241,63.013,63.013,0,0,0,.218-6.825,17.052,17.052,0,0,0-.158-2.981,1.293,1.293,0,0,0-.767-.949,2.657,2.657,0,0,1-.8-.469.814.814,0,0,1-.188-.579,1.059,1.059,0,0,1,.523-.895,2.227,2.227,0,0,1,1.29-.358q.485,0,1.424.073,1.984.157,4.745.158a46,46,0,0,0,5.948-.244,3,3,0,0,1,.316-.024,1.075,1.075,0,0,1,.816.486,4.77,4.77,0,0,1,1.07,3.018,1.9,1.9,0,0,1-.353,1.2,1.12,1.12,0,0,1-.925.451,1.032,1.032,0,0,1-.644-.17,13.68,13.68,0,0,1-1.119-1.193,2.535,2.535,0,0,0-1.321-.827,15.793,15.793,0,0,0-2.877-.255q-.84,0-1.034.426a5.132,5.132,0,0,0-.274,1.241,12.335,12.335,0,0,0-.128,1.678.656.656,0,0,0,.292.621,2.4,2.4,0,0,0,1.095.171,1.3,1.3,0,0,0,.791-.193,1.067,1.067,0,0,0,.353-.657q.28-1.327,1.143-1.327,1.485,0,1.484,3.553a6.561,6.561,0,0,1-.644,3.309,1.2,1.2,0,0,1-1.071.644c-.479,0-.754-.32-.828-.961a4.107,4.107,0,0,0-.152-.876,1.214,1.214,0,0,0-.347-.486,1.638,1.638,0,0,0-1.167-.378,1.058,1.058,0,0,0-.743.193,1,1,0,0,0-.17.742q0,.1-.013,1.132a4.471,4.471,0,0,0,.438,2.566.7.7,0,0,0,.3.237,5.814,5.814,0,0,0,.8.153.827.827,0,0,1,.537.328,1.018,1.018,0,0,1,.218.644q0,.937-1.1,1.207a20.2,20.2,0,0,1-4.439.376,13.63,13.63,0,0,1-3.454-.288Zm95.048-13.09a1.363,1.363,0,0,1-.705-1.217q0-1.046,1.5-1.641a7.67,7.67,0,0,1,2.849-.61,3.111,3.111,0,0,1,1.679.4,1.211,1.211,0,0,1,.62,1.065,1.663,1.663,0,0,1-.938,1.484,7.022,7.022,0,0,1-3.589.864,2.558,2.558,0,0,1-1.414-.341Z" transform="translate(-472.441 187.621)" fill="#fff"/>
  </g>
</svg>
