<svg id="Welcome_to_the_club" data-name="Welcome to the club" xmlns="http://www.w3.org/2000/svg" width="276.835" height="280.298" viewBox="0 0 276.835 280.298">
  <g id="Group_5295" data-name="Group 5295" transform="translate(-102.927 -66.448)">
    <g id="Group_5292" data-name="Group 5292">
      <path id="Path_3396" data-name="Path 3396" d="M137.688,210.92s-6.712-5.2-8.727-10.059-2.641-5.771-6.639-7.034-6.669-2.545-7.406-7.174-2.13-5.677-6.127-6.939-7.061-4.732-5.4-9.45,9.564-4.588,13.092-.769,3.451,8.563,9.959,10.55,5.569,7.1,6.331,10.149,5.808,2.916,6.153,5.358S142.447,215.23,137.688,210.92Z" fill="#879aaf"/>
      <g id="Group_5291" data-name="Group 5291">
        <path id="Path_3397" data-name="Path 3397" d="M139.523,209.669c-1.637-.988-2.6-2.819-3.439-4.471a32.016,32.016,0,0,1-2.072-5.1c-.953-3.083-1.611-6.372-4.141-8.6-2.069-1.825-4.747-2.744-6.9-4.452-2.711-2.155-3.165-5.755-5.492-8.22-2.589-2.742-6.226-4.029-9.715-5.194-.337-.112-.573.393-.233.506,3.288,1.1,6.706,2.282,9.238,4.758,2.432,2.377,2.875,6,5.448,8.248,2.075,1.814,4.753,2.73,6.9,4.448,2.928,2.347,3.472,6.011,4.588,9.373a32.093,32.093,0,0,0,2.4,5.446,9.446,9.446,0,0,0,3.191,3.774c.306.185.536-.323.232-.507Z" fill="#fff"/>
      </g>
    </g>
    <g id="Group_5294" data-name="Group 5294">
      <path id="Path_3398" data-name="Path 3398" d="M157.331,206.592s-.694-14.757-5.608-22.49-5.582-9.533-3.383-16.49,3.041-12.047-2.818-17.724-5.959-8.71-3.761-15.668.318-14.79-8.062-17.144-16.1,9.04-14.185,17.885,8.75,13.477,5.075,24.735,4.55,15.034,8.13,19.167-1.653,11.19,1.482,14.123S158.712,217.682,157.331,206.592Z" fill="#63788f"/>
      <g id="Group_5293" data-name="Group 5293">
        <path id="Path_3399" data-name="Path 3399" d="M154.465,208.092c.219-2.686-.751-5.188-1.875-7.577a55.761,55.761,0,0,0-4.436-7.751c-3.4-4.96-8.554-9.372-9.739-15.515-.953-4.939.521-9.925.387-14.886a16.345,16.345,0,0,0-1.855-7.236c-1.392-2.673-3.17-5.107-4.03-8.031-1.983-6.745,0-13.781,1.94-20.285.1-.344-.447-.437-.549-.1-1.659,5.562-3.292,11.335-2.6,17.2a20.7,20.7,0,0,0,2.711,7.928c1.506,2.634,3.147,5.151,3.62,8.208.767,4.954-.73,9.911-.463,14.878a16.652,16.652,0,0,0,2.073,7.205,52.854,52.854,0,0,0,5.329,7.311,57.79,57.79,0,0,1,5.765,8.642c1.608,2.985,3.455,6.415,3.17,9.912-.029.355.519.454.549.1Z" fill="#fff"/>
      </g>
    </g>
  </g>
  <g id="FC_icon" data-name="FC icon" transform="translate(-102.927 -66.448)">
    <path id="Path_3400" data-name="Path 3400" d="M364.711,149.369,295.86,84.609a47.8,47.8,0,0,0-55.741-7.088l-82.867,45.471a47.8,47.8,0,0,0-23.964,50.822l17.636,92.862a47.8,47.8,0,0,0,40.929,38.5L285.621,317.1a47.8,47.8,0,0,0,49.26-27.03l40.314-85.5A47.8,47.8,0,0,0,364.711,149.369Z" fill="#dbe2eb"/>
  </g>
  <g id="Group_5299" data-name="Group 5299" transform="translate(-102.927 -66.448)">
    <g id="Group_5296" data-name="Group 5296">
      <rect id="Rectangle_4732" data-name="Rectangle 4732" width="77.853" height="13.855" transform="translate(258.365 310.911)" fill="#f79a45"/>
      <rect id="Rectangle_4733" data-name="Rectangle 4733" width="45.437" height="13.855" transform="translate(285.467 310.911)" fill="#f8ad43"/>
      <rect id="Rectangle_4734" data-name="Rectangle 4734" width="7.278" height="13.855" transform="translate(315.658 310.911)" fill="#f8d24a"/>
      <rect id="Rectangle_4735" data-name="Rectangle 4735" width="77.853" height="2.066" transform="translate(258.365 322.7)" fill="#f79a45" opacity="0.5" style="mix-blend-mode: multiply;isolation: isolate"/>
    </g>
    <g id="Group_5297" data-name="Group 5297">
      <rect id="Rectangle_4736" data-name="Rectangle 4736" width="77.853" height="13.855" transform="translate(252.717 297.055)" fill="#f79a45"/>
      <rect id="Rectangle_4737" data-name="Rectangle 4737" width="45.437" height="13.855" transform="translate(279.819 297.055)" fill="#f8ad43"/>
      <rect id="Rectangle_4738" data-name="Rectangle 4738" width="7.278" height="13.855" transform="translate(310.01 297.055)" fill="#f8d24a"/>
      <rect id="Rectangle_4739" data-name="Rectangle 4739" width="77.853" height="2.066" transform="translate(252.717 308.845)" fill="#f79a45" opacity="0.5" style="mix-blend-mode: multiply;isolation: isolate"/>
    </g>
    <g id="Group_5298" data-name="Group 5298">
      <rect id="Rectangle_4740" data-name="Rectangle 4740" width="77.853" height="13.855" transform="translate(258.365 283.2)" fill="#f79a45"/>
      <rect id="Rectangle_4741" data-name="Rectangle 4741" width="45.437" height="13.855" transform="translate(285.467 283.2)" fill="#f8ad43"/>
      <rect id="Rectangle_4742" data-name="Rectangle 4742" width="7.278" height="13.855" transform="translate(315.658 283.2)" fill="#f8d24a"/>
      <rect id="Rectangle_4743" data-name="Rectangle 4743" width="77.853" height="2.066" transform="translate(258.365 294.989)" fill="#f79a45" opacity="0.5" style="mix-blend-mode: multiply;isolation: isolate"/>
    </g>
  </g>
  <path id="Path_3401" data-name="Path 3401" d="M130.081,304.085l-9.639,14.054a2.317,2.317,0,0,1-2.821.82h0a2.316,2.316,0,0,1-1.219-3.04l9.342-21.848,7.021,3.521Z" transform="translate(-102.927 -66.448)" fill="#5b6374"/>
  <path id="Rectangle_4744" data-name="Rectangle 4744" d="M3.513,0h0A3.513,3.513,0,0,1,7.025,3.513V9.189a0,0,0,0,1,0,0H0a0,0,0,0,1,0,0V3.513A3.513,3.513,0,0,1,3.513,0Z" transform="matrix(-0.521, -0.853, 0.853, -0.521, 26.069, 238.576)" fill="#eb8f90"/>
  <path id="Path_3402" data-name="Path 3402" d="M233.995,330.605l11.891,12.209a2.316,2.316,0,0,1,.25,2.926h0a2.315,2.315,0,0,1-3.22.6l-19.591-13.446,4.83-6.193Z" transform="translate(-102.927 -66.448)" fill="#5b6374"/>
  <path id="Rectangle_4745" data-name="Rectangle 4745" d="M3.513,0h0A3.513,3.513,0,0,1,7.025,3.513V9.189a0,0,0,0,1,0,0H0a0,0,0,0,1,0,0V3.513A3.513,3.513,0,0,1,3.513,0Z" transform="matrix(-0.972, 0.236, -0.236, -0.972, 132.27, 266.419)" fill="#eb8f90"/>
  <path id="Path_3403" data-name="Path 3403" d="M202.149,163.745s8.034,3.67,16.292,8.036c9.156,4.841,18.522,10.655,16.12,15.827-5.288,11.388-38.505-13.215-38.505-13.215C191.485,169.778,196.47,162.77,202.149,163.745Z" transform="translate(-102.927 -66.448)" fill="#eb8f90"/>
  <path id="Path_3404" data-name="Path 3404" d="M216.1,168.968a48.1,48.1,0,0,1-8.108,16.315L190.923,172.21l6.556-11.127Z" transform="translate(-102.927 -66.448)" fill="#1c4598"/>
  <g id="Group_5300" data-name="Group 5300" transform="translate(-102.927 -66.448)">
    <path id="Path_3405" data-name="Path 3405" d="M255.092,161.653s-34.28,19.167-29.133,27.268c5.8,9.136,33.763-23.376,33.763-23.376S260.2,162.465,255.092,161.653Z" fill="#eb8f90"/>
    <path id="Path_3406" data-name="Path 3406" d="M252.978,162.874a7.614,7.614,0,0,1,.419-3.9c.795-1.749,1.547-2.859,1.337-4.954s2.281-2.242,2.375-.406-.2,4.819,2.11,3.7,4.312-7.074,6.939-4.587c0,0,1.561-2.523,2.571-1.876s-.392,2.942-.392,2.942,3.491-.459-1.09,4.882c0,0,1.45.585.692,1.715-1.213,1.806-5.286,4.646-8.956,6C253.017,168.594,252.978,162.874,252.978,162.874Z" fill="#eb8f90"/>
    <path id="Path_3407" data-name="Path 3407" d="M266.158,152.725s-.521,1.629-5.255,6.006" fill="none" stroke="#d16b70" stroke-width="1"/>
    <path id="Path_3408" data-name="Path 3408" d="M268.337,153.791a39.573,39.573,0,0,1-5.651,6.133" fill="none" stroke="#d16b70" stroke-width="1"/>
    <path id="Path_3409" data-name="Path 3409" d="M267.247,158.673s-1.991,1.671-3.619,2.939" fill="none" stroke="#d16b70" stroke-width="1"/>
  </g>
  <path id="Path_3410" data-name="Path 3410" d="M218.5,280.278h0a9.7,9.7,0,0,0,6.867-11.432c-4.705-21.286-10.2-42.193-15.1-57.806H188.389c5.665,17.76,13.08,43.606,18.114,62.4A9.707,9.707,0,0,0,218.5,280.278Z" transform="translate(-102.927 -66.448)" fill="#63788f"/>
  <path id="Path_3411" data-name="Path 3411" d="M213.462,262.252h0a9.671,9.671,0,0,1,12.059,7.267c3.973,18.369,9.386,42.1,11.824,53.91l-15.831,4.428c-3.063-13.373-10.389-37.275-14.793-53.8A9.671,9.671,0,0,1,213.462,262.252Z" transform="translate(-102.927 -66.448)" fill="#63788f"/>
  <path id="Path_3412" data-name="Path 3412" d="M181.677,280.618h0a9.7,9.7,0,0,0,9.693-9.159c1.2-21.767,1.732-44.064,1.222-60.419H171.348c.671,18.63.836,40.307.622,59.761A9.707,9.707,0,0,0,181.677,280.618Z" transform="translate(-102.927 -66.448)" fill="#63788f"/>
  <path id="Path_3413" data-name="Path 3413" d="M190.344,266.048h0a9.67,9.67,0,0,1-3.71,13.581c-16.594,8.823-37.205,19.54-47.9,25.1l-8.57-14.029c12.035-6.587,32.287-19.191,46.992-27.927A9.669,9.669,0,0,1,190.344,266.048Z" transform="translate(-102.927 -66.448)" fill="#63788f"/>
  <path id="Path_3414" data-name="Path 3414" d="M210.284,211.04s-.494-43.117-11.3-49.254c-6.2-3.519-19.025-2.563-25.566,2.3-6.6,4.906-1.939,46.956-1.939,46.956Z" transform="translate(-102.927 -66.448)" fill="#1c4598"/>
  <path id="Path_3415" data-name="Path 3415" d="M178.607,167.188s6.19,6.3,12.34,13.332c6.818,7.8,13.485,16.576,9.392,20.547-9.012,8.742-31.23-26.115-31.23-26.115C166.491,169.007,173.653,164.246,178.607,167.188Z" transform="translate(-102.927 -66.448)" fill="#eb8f90"/>
  <path id="Path_3416" data-name="Path 3416" d="M189.763,177.054a39.33,39.33,0,0,1-13.407,12.335l-7.283-11.843a8.575,8.575,0,0,1,1.963-11.2l5.737-4.569Z" transform="translate(-102.927 -66.448)" fill="#1c4598"/>
  <g id="Group_5301" data-name="Group 5301" transform="translate(-102.927 -66.448)">
    <path id="Path_3417" data-name="Path 3417" d="M221.218,172.85s-34.342,18.485-28.467,27.625c6.625,10.306,33.529-23.088,33.529-23.088S226.572,174.077,221.218,172.85Z" fill="#eb8f90"/>
    <path id="Path_3418" data-name="Path 3418" d="M219.1,174.032a8.461,8.461,0,0,1,.18-4.206c.711-1.844,1.419-3,1.064-5.286s2.221-2.278,2.439-.279.105,5.215,2.434,4.157,4.014-7.386,6.9-4.509c0,0,1.456-2.633,2.546-1.862s-.214,3.166-.214,3.166,3.6-.262-.812,5.225c0,0,1.544.733.83,1.907-1.141,1.879-5.184,4.685-8.907,5.909C219.518,180.243,219.1,174.032,219.1,174.032Z" fill="#eb8f90"/>
    <path id="Path_3419" data-name="Path 3419" d="M232.125,163.909s-.434,1.733-5.064,6.162" fill="none" stroke="#d16b70" stroke-width="1"/>
    <path id="Path_3420" data-name="Path 3420" d="M234.457,165.213a35.133,35.133,0,0,1-5.467,6.274" fill="none" stroke="#d16b70" stroke-width="1"/>
    <path id="Path_3421" data-name="Path 3421" d="M233.645,170.438s-1.958,1.679-3.566,2.945" fill="none" stroke="#d16b70" stroke-width="1"/>
    <path id="Path_3422" data-name="Path 3422" d="M217.189,187.65c3.874-4.047,7.027-7.767,8.379-9.4" fill="none" stroke="#d16b70" stroke-width="1"/>
  </g>
  <path id="Path_3423" data-name="Path 3423" d="M189.644,166.916c4.5,0,6.547-5.253,5.339-6.461a4.272,4.272,0,0,1-.849-1.314h0a8.878,8.878,0,0,1-.611-2.282l0,0L185.2,149.44c.449,4.721-1.572,8.037-2.305,10.4S184.529,166.916,189.644,166.916Z" transform="translate(-102.927 -66.448)" fill="#eb8f90"/>
  <path id="Path_3424" data-name="Path 3424" d="M186.662,155.023a7.938,7.938,0,0,0,7.469,4.118,8.878,8.878,0,0,1-.611-2.282l0,0C193.292,156.727,184.428,150.749,186.662,155.023Z" transform="translate(-102.927 -66.448)" fill="#d16b70"/>
  <path id="Path_3425" data-name="Path 3425" d="M176.98,140.956s.357,4.31,6.624,8.75c6.57,4.655-.909-9.652-.909-9.652Z" transform="translate(-102.927 -66.448)" fill="#8e3332"/>
  <path id="Path_3426" data-name="Path 3426" d="M194.085,138.367s.887,3.714,2.037,7.882c1.645,5.959,1.785,10.777-4.285,10.777-10.194,0-9.516-16.917-9.516-16.917Z" transform="translate(-102.927 -66.448)" fill="#eb8f90"/>
  <path id="Path_3427" data-name="Path 3427" d="M185.6,142.02s15.287-.342,13.179-10.681-8.1,2.476-11.212,2.476c-3.647,0-13.58.531-9.935,9.211C178.578,145.281,180.09,142.372,185.6,142.02Z" transform="translate(-102.927 -66.448)" fill="#8e3332"/>
  <line id="Line_1324" data-name="Line 1324" x2="4.65" y2="2.882" transform="translate(122.341 119.761)" fill="none" stroke="#d16b70" stroke-width="1"/>
  <line id="Line_1325" data-name="Line 1325" x1="4.563" y2="1.575" transform="translate(92.653 132.859)" fill="none" stroke="#d16b70" stroke-width="1"/>
  <rect id="Rectangle_4746" data-name="Rectangle 4746" width="12.513" height="2" transform="matrix(0.264, -0.965, 0.965, 0.264, 105.845, 112.707)" fill="#fff"/>
  <path id="Path_3428" data-name="Path 3428" d="M174.71,186.3l-.985-1.74c.09-.051,9.025-5.143,12.22-9.448l1.606,1.191C184.1,180.944,175.093,186.08,174.71,186.3Z" transform="translate(-102.927 -66.448)" fill="#fff"/>
  <path id="Path_3429" data-name="Path 3429" d="M201.824,234.349l-15.849.625,1.877-13.763S193.9,221,195.359,221,201.824,234.349,201.824,234.349Z" transform="translate(-102.927 -66.448)" fill="#63788f"/>
  <path id="Path_3430" data-name="Path 3430" d="M191.038,228.431l-.532-1.928,5.183-1.43-2.151-13.3,1.975-.319,2.437,15.066Z" transform="translate(-102.927 -66.448)" fill="#5b6374"/>
  <rect id="Rectangle_4747" data-name="Rectangle 4747" width="16.11" height="2" transform="translate(68.145 159.615) rotate(-68.76)" fill="#5b6374"/>
  <rect id="Rectangle_4748" data-name="Rectangle 4748" width="2" height="19.456" transform="matrix(0.857, -0.514, 0.514, 0.857, 101.585, 145.267)" fill="#5b6374"/>
  <path id="Path_3431" data-name="Path 3431" d="M220.812,329.092l-2.053-7.586,18.029-6.321,1.712,8.959Zm.363-6.313,1.041,3.844,13.975-3.91-.931-4.873Z" transform="translate(-102.927 -66.448)" fill="#5b6374"/>
  <path id="Path_3432" data-name="Path 3432" d="M138.346,306.018l-9.579-15.681,7.392-4.151,9.888,16.186Zm-6.791-14.954,7.56,12.376,4.066-1.924-7.723-12.643Z" transform="translate(-102.927 -66.448)" fill="#5b6374"/>
  <circle id="Ellipse_175" data-name="Ellipse 175" cx="3.076" cy="3.076" r="3.076" transform="translate(77.417 81.566)" fill="#eb8f90"/>
  <path id="Path_3433" data-name="Path 3433" d="M182.743,145.1s1.668,4.067,3.753,5.318,5.527-2.086,10.532-1.147c0,0,.417,5.526-1.356,8.55,0,0-5.318,1.043-8.446-2.4a48.285,48.285,0,0,1-5.317-7.195Z" transform="translate(-102.927 -66.448)" fill="#8e3332"/>
  <path id="Path_3434" data-name="Path 3434" d="M195.255,151.038l-3.232.417s.312,2.868,2.085,2.607S195.255,151.038,195.255,151.038Z" transform="translate(-102.927 -66.448)" fill="#fff"/>
  <circle id="Ellipse_176" data-name="Ellipse 176" cx="0.587" cy="0.587" r="0.587" transform="translate(86.569 77.669)" fill="#8e3332"/>
  <circle id="Ellipse_177" data-name="Ellipse 177" cx="0.587" cy="0.587" r="0.587" transform="translate(90.229 76.861)" fill="#8e3332"/>
  <path id="Path_3435" data-name="Path 3435" d="M192.209,144.135a2.742,2.742,0,0,0,1.476,2.741c1.744.9.3,2.451-1.275,1.74" transform="translate(-102.927 -66.448)" fill="none" stroke="#8e3332" stroke-width="2"/>
  <path id="Path_3436" data-name="Path 3436" d="M189.726,142.4a2.02,2.02,0,0,0-1.633,1.2" transform="translate(-102.927 -66.448)" fill="none" stroke="#8e3332" stroke-width="2"/>
  <path id="Path_3437" data-name="Path 3437" d="M194.365,141.511a2.866,2.866,0,0,0-2.09.343" transform="translate(-102.927 -66.448)" fill="none" stroke="#8e3332" stroke-width="2"/>
  <path id="Path_3438" data-name="Path 3438" d="M317.75,165.95c-4.919-4.1-31.629-16.816-35.154-8.433-4.789,11.387,23.519,17.842,30.943,18.572S321.833,170.813,317.75,165.95Z" transform="translate(-102.927 -66.448)" fill="#1c4598"/>
  <path id="Path_3439" data-name="Path 3439" d="M288.4,208.412c4.281-11.4,6.252-37.681,18.639-43.215,7.1-3.172,18.818-2.119,24.938,4.965s.441,34.429-3.289,43.041C315.249,211.882,302.027,209.419,288.4,208.412Z" transform="translate(-102.927 -66.448)" fill="#1c4598"/>
  <path id="Path_3440" data-name="Path 3440" d="M277.535,132.04c4.087,4.913,19.673,28.678,12.281,33.527-8.336,5.469-18.17-24.484-19.957-29.967C271.79,132.611,274.017,131.64,277.535,132.04Z" transform="translate(-102.927 -66.448)" fill="#1c4598"/>
  <path id="Path_3441" data-name="Path 3441" d="M271.674,136.088c-2.162-.81-2.221-1.292-3.47-2.578s-1.989-2.626-3.5-3.591-.55-2.435.813-1.866,3.777,2.791,4.206.346-2.983-5.652.242-7.4c-.436-.712-1.2-2.288-.15-2.719s1.759.984,2.222,1.705c1.983-1.679,3,1.935,3.549,3.4,1.059.126,1.231-.719,1.9.732,1.069,2.321.618,6.852.115,9.067C276.784,136.792,273.836,136.9,271.674,136.088Z" transform="translate(-102.927 -66.448)" fill="#eb8f90"/>
  <path id="Path_3442" data-name="Path 3442" d="M269.929,121.01c1.343,2.17,1.707,4.574,2.194,7.041" transform="translate(-102.927 -66.448)" fill="none" stroke="#d16b70" stroke-width="1"/>
  <path id="Path_3443" data-name="Path 3443" d="M272.046,120.011a39.738,39.738,0,0,1,2.083,7.394" transform="translate(-102.927 -66.448)" fill="none" stroke="#d16b70" stroke-width="1"/>
  <path id="Path_3444" data-name="Path 3444" d="M275.6,123.435q.276,2.1.493,4.2" transform="translate(-102.927 -66.448)" fill="none" stroke="#d16b70" stroke-width="1"/>
  <path id="Path_3445" data-name="Path 3445" d="M366.142,297.44c.551,3.59,2.011,10.256,2.84,14.424.215,1.08.953,1.9,2.058,1.714-.006.111-.005.084,0,0,1.28-.213,2.078-.736,2.114-2.271.168-7.13.1-14.555.2-21.758-2.458.263-4.866.77-7.342.937C366.312,293.475,365.592,293.849,366.142,297.44Z" transform="translate(-102.927 -66.448)" fill="#5b6374"/>
  <path id="Path_3446" data-name="Path 3446" d="M370.314,294.22a1.341,1.341,0,0,1-.234.418c-1.235,1.368-2.3,1.971-4.17,1.307-1.545-.549-3.264-1.336-4.821-1.979,1.1-1.9,2.215-3.776,3.358-5.659,1.452.78,3.3,1.245,4.677,2.056C370.792,291.345,370.8,292.541,370.314,294.22Z" transform="translate(-102.927 -66.448)" fill="#eb8f90"/>
  <path id="Path_3447" data-name="Path 3447" d="M311.95,320.388c-.646,3.555-1.283,10.6-1.673,14.853-.1,1.1.147,2.151,1.3,2.273-.042.135-.031.1,0,0,1.341.142,2.084-.27,2.557-1.759,2.2-6.918,4.792-14.112,6.378-21.291-2.4-.269-4.842-.239-7.23-.622C312.877,316.769,312.6,316.832,311.95,320.388Z" transform="translate(-102.927 -66.448)" fill="#5b6374"/>
  <path id="Path_3448" data-name="Path 3448" d="M315.159,319.269a1.337,1.337,0,0,1-.415.232c-1.707.45-2.683.395-4.017-.925a25.236,25.236,0,0,1-3.183-3.857c1.933-1.042,3.794-2.178,5.744-3.2.847,1.371,2.208,2.479,2.992,3.867C317.23,317.063,316.5,318.141,315.159,319.269Z" transform="translate(-102.927 -66.448)" fill="#eb8f90"/>
  <path id="Path_3449" data-name="Path 3449" d="M322.123,174.863c-5.762-2.577-34.535-7.114-35.594,1.719-1.438,12,27.311,10.656,34.523,9.254S327.41,178.258,322.123,174.863Z" transform="translate(-102.927 -66.448)" fill="#1c4598"/>
  <path id="Path_3450" data-name="Path 3450" d="M292.53,275.076c-.3.53-.145.4,0,0-4.274,1.217-9.623-1.748-10.361-6.569-3.126-20.417,1.275-40.259,6.394-60.043,6.922.551,13.678,1.408,20.552,2.476-6.1,19.019-11.727,34.873-9.587,55.042C300.123,271.585,297.018,273.8,292.53,275.076Z" transform="translate(-102.927 -66.448)" fill="#63788f"/>
  <path id="Path_3451" data-name="Path 3451" d="M291.2,258.479c-.666-.276-.376-.207,0,0-5.657.061-10.051,5.619-8.827,10.777,4.131,17.407,11.655,32.865,19.968,48.44,4.7-2.308,9.127-4.879,13.745-7.307-9.038-15.263-12.977-26.919-16.5-44.227C298.505,260.888,296.577,258.421,291.2,258.479Z" transform="translate(-102.927 -66.448)" fill="#63788f"/>
  <path id="Path_3452" data-name="Path 3452" d="M322.344,272.3c-.615.506-.344.347,0,0-4.448,1.835-11.287-.26-12.444-5.032-4.895-20.21-6.027-36.174-.726-56.353,6.568.941,13.017,1.66,19.578,2.477-5.323,18.727-5.124,29.157-.426,47.955C329.631,266.566,327.013,270.369,322.344,272.3Z" transform="translate(-102.927 -66.448)" fill="#63788f"/>
  <path id="Path_3453" data-name="Path 3453" d="M311.116,258.482c-.824.515-.39.037,0,0-2.925,3.023-1.8,10.511.8,12.485,14.937,11.339,30.506,19.433,47.4,26.812,2.455-4.589,5.122-8.9,7.879-13.283-15.523-6.77-27.575-17.915-41.885-26.938C320.877,254.765,315.6,255.675,311.116,258.482Z" transform="translate(-102.927 -66.448)" fill="#63788f"/>
  <path id="Path_3454" data-name="Path 3454" d="M265.005,164.085c4.971,4.859,21.832,24.695,29.226,18.8,8.338-6.647-17.941-23.858-23.316-25.974C267.421,158.261,265.788,160.4,265.005,164.085Z" transform="translate(-102.927 -66.448)" fill="#1c4598"/>
  <path id="Path_3455" data-name="Path 3455" d="M271.712,158.923c-.053-2.418-.519-2.472-1.412-4.081s-1.947-2.593-2.451-4.4-2.285-1.114-2.167.45,1.538,4.55-1.116,4.311-4.874-4.382-7.586-1.619c-.643-.654-1.974-1.766-2.74-.842s.389,2.018.991,2.693c-2.324,1.538.888,3.478,2.27,4.47-.215,1.079-1.177,1.025.1,2.111,2.042,1.738,6.817,2.165,9.134,2.17C270.5,164.194,271.765,161.341,271.712,158.923Z" transform="translate(-102.927 -66.448)" fill="#eb8f90"/>
  <path id="Path_3456" data-name="Path 3456" d="M256.992,153.549c1.785,1.943,4.1,2.9,6.445,4.014" transform="translate(-102.927 -66.448)" fill="none" stroke="#d16b70" stroke-width="1"/>
  <path id="Path_3457" data-name="Path 3457" d="M255.25,155.449a38.714,38.714,0,0,0,6.846,3.992" transform="translate(-102.927 -66.448)" fill="none" stroke="#d16b70" stroke-width="1"/>
  <path id="Path_3458" data-name="Path 3458" d="M257.539,159.928q2.049.81,4.122,1.553" transform="translate(-102.927 -66.448)" fill="none" stroke="#d16b70" stroke-width="1"/>
  <path id="Path_3459" data-name="Path 3459" d="M317.637,170.784c-3.117-.226-5.568-3.2-4.624-6.089.283-.868.544-.722.9-1.372,0,.039,0,.019,0,.03a10.539,10.539,0,0,0,.72-2.111c0-.021,0,0,0-.006,2.79-2.268,5.558-4.512,8.314-6.852-.489,3.681.811,6.831,1.142,10.486S321.183,171.042,317.637,170.784Z" transform="translate(-102.927 -66.448)" fill="#eb8f90"/>
  <path id="Path_3460" data-name="Path 3460" d="M320.94,159.684c-1.258,3.028-4.083,3.425-7,3.7a17.723,17.723,0,0,0,.691-2.152c-.021,0,.014.032.026.018C315.315,160.44,322.118,156.845,320.94,159.684Z" transform="translate(-102.927 -66.448)" fill="#d16b70"/>
  <path id="Path_3461" data-name="Path 3461" d="M330.951,145.981c-1.783,3.686-2.795,6.845-7.009,8.616-4.417,1.857.173-7.985,1.523-9.267C327.256,145.535,329.083,145.743,330.951,145.981Z" transform="translate(-102.927 -66.448)" fill="#8e3332"/>
  <path id="Path_3462" data-name="Path 3462" d="M314.626,143.832c-.809,2.519-1.03,4.969-2.05,7.521-1.458,3.648-2.387,10.024,3.34,9.585,9.619-.737,9.422-7.69,9.863-15.507C322.047,144.864,318.327,144.432,314.626,143.832Z" transform="translate(-102.927 -66.448)" fill="#eb8f90"/>
  <path id="Path_3463" data-name="Path 3463" d="M326.928,150.149c1.525.8-1.132,5.172-3.5,4.329C321.6,153.828,324.579,148.911,326.928,150.149Z" transform="translate(-102.927 -66.448)" fill="#eb8f90"/>
  <path id="Path_3464" data-name="Path 3464" d="M289.754,158.177l-1.743-.98a10.62,10.62,0,0,1,2.64-3.133l1.263,1.552A8.674,8.674,0,0,0,289.754,158.177Z" transform="translate(-102.927 -66.448)" fill="#fff"/>
  <path id="Path_3465" data-name="Path 3465" d="M296.214,229.653c5.5-.74,11.018-1.31,16.536-1.9-.554-5.493-.866-10.977-1-16.5q-3.148-.627-6.308-1.192C302.245,216.539,299.122,223.044,296.214,229.653Z" transform="translate(-102.927 -66.448)" fill="#63788f"/>
  <path id="Path_3466" data-name="Path 3466" d="M306.584,227.635c-1.5-.827-3.022-1.629-4.539-2.431l-1.545-.818.365-.847c1.981-4.607,3.857-8.877,5.735-13.055l1.824.821c-1.758,3.909-3.514,7.9-5.357,12.177,1.5.791,3,1.584,4.48,2.4Z" transform="translate(-102.927 -66.448)" fill="#5b6374"/>
  <path id="Path_3467" data-name="Path 3467" d="M364.019,289.221c-15.931-7.266-29.787-17.357-40.079-25.337l-.268-.208-.086-.328c-5.03-19.14-5.128-30.966-.416-50.618l1.945.466c-4.594,19.164-4.528,30.741.32,49.316,10.177,7.88,23.808,17.772,39.414,24.889Z" transform="translate(-102.927 -66.448)" fill="#5b6374"/>
  <path id="Path_3468" data-name="Path 3468" d="M303.062,316.925c-19.238-38.634-22.36-62.92-13.916-108.275l1.966.367c-8.449,45.384-5.5,68.387,13.741,107.016Z" transform="translate(-102.927 -66.448)" fill="#5b6374"/>
  <path id="Path_3469" data-name="Path 3469" d="M353.655,295.65c1.846.7,3.709,1.353,5.544,2.081,2.6-4.428,5.222-8.843,7.933-13.206-1.847-.9-3.738-1.706-5.61-2.552C358.879,286.52,356.278,291.091,353.655,295.65Z" transform="translate(-102.927 -66.448)" fill="#5b6374"/>
  <path id="Path_3470" data-name="Path 3470" d="M298.628,311.957q7.083-2.958,13.992-6.266c1.125,1.6,2.3,3.158,3.4,4.767-4.586,2.351-9.035,4.965-13.652,7.249C301.182,315.75,299.874,313.875,298.628,311.957Z" transform="translate(-102.927 -66.448)" fill="#5b6374"/>
  <path id="Path_3471" data-name="Path 3471" d="M320.189,150.987a.653.653,0,0,1-.671.661.625.625,0,0,1-.66-.648.652.652,0,0,1,.671-.661A.625.625,0,0,1,320.189,150.987Z" transform="translate(-102.927 -66.448)" fill="#8e3332"/>
  <path id="Path_3472" data-name="Path 3472" d="M315.435,149.8a.647.647,0,1,1-.641-.661A.628.628,0,0,1,315.435,149.8Z" transform="translate(-102.927 -66.448)" fill="#8e3332"/>
  <path id="Path_3473" data-name="Path 3473" d="M313.831,156.679c1.079.179,2.151.378,3.216.614-.384.893-.986,1.939-2.1,1.684S313.809,157.623,313.831,156.679Z" transform="translate(-102.927 -66.448)" fill="#fff"/>
  <path id="Path_3474" data-name="Path 3474" d="M319.967,148.337a2.66,2.66,0,0,1,1.9,1.365" transform="translate(-102.927 -66.448)" fill="none" stroke="#8e3332" stroke-width="2"/>
  <path id="Path_3475" data-name="Path 3475" d="M314.062,147.264a3.672,3.672,0,0,1,2.385.4" transform="translate(-102.927 -66.448)" fill="none" stroke="#8e3332" stroke-width="2"/>
  <path id="Path_3476" data-name="Path 3476" d="M322.549,151.205a2.556,2.556,0,0,1-2.635,2.6,2.473,2.473,0,0,1-2.537-2.6,2.522,2.522,0,0,1,2.608-2.567A2.442,2.442,0,0,1,322.549,151.205Z" transform="translate(-102.927 -66.448)" fill="none" stroke="#8e3332" stroke-width="1"/>
  <path id="Path_3477" data-name="Path 3477" d="M316.45,149.854a2.438,2.438,0,0,1-2.571,2.507,2.489,2.489,0,0,1-2.522-2.583,2.547,2.547,0,0,1,5.093.076Z" transform="translate(-102.927 -66.448)" fill="none" stroke="#8e3332" stroke-width="1"/>
  <path id="Path_3478" data-name="Path 3478" d="M316.372,150.415l.909.276" transform="translate(-102.927 -66.448)" fill="none" stroke="#8e3332" stroke-width="1"/>
  <path id="Path_3479" data-name="Path 3479" d="M314.344,146c3.949,1.4,7.492.956,11.392-.643,1.768.2,3.4.4,5.243.619-2.428-2.607-1.623-4.254-5.881-5.613S314.2,139.226,314.344,146Z" transform="translate(-102.927 -66.448)" fill="#8e3332"/>
  <path id="Path_3480" data-name="Path 3480" d="M338.978,142.6a6.566,6.566,0,1,1-6.769-6.321A6.347,6.347,0,0,1,338.978,142.6Z" transform="translate(-102.927 -66.448)" fill="#8e3332"/>
  <path id="Path_3481" data-name="Path 3481" d="M310.066,187.548a65.119,65.119,0,0,1-15.6-1.605l.507-1.934c8.53,2.235,21.233,1.578,26.047.909l.276,1.982A89.533,89.533,0,0,1,310.066,187.548Z" transform="translate(-102.927 -66.448)" fill="#fff"/>
  <circle id="Ellipse_178" data-name="Ellipse 178" cx="5.598" cy="5.598" r="5.598" transform="translate(73.542 197.894)" fill="#5b6374"/>
  <circle id="Ellipse_179" data-name="Ellipse 179" cx="5.598" cy="5.598" r="5.598" transform="translate(110.368 203.203)" fill="#5b6374"/>
  <g id="FC_icon-2" data-name="FC icon" transform="translate(-102.927 -66.448)">
    <path id="Path_3482" data-name="Path 3482" d="M257.228,81.758,243.669,69a9.414,9.414,0,0,0-10.978-1.395l-16.319,8.954a9.413,9.413,0,0,0-4.72,10.009l3.473,18.289a9.413,9.413,0,0,0,8.061,7.581l18.466,2.348a9.414,9.414,0,0,0,9.7-5.323l7.939-16.837A9.414,9.414,0,0,0,257.228,81.758Z" fill="#ec008c"/>
    <path id="Path_3483" data-name="Path 3483" d="M244.446,85.855l-.493.493h-10v2.869h6.491l.522.522v3.709l-.522.522h-6.462v7.1l-.493.493h-5.767l-.493-.493v-19.3l.522-.522h16.169l.522.522Z" fill="#fff"/>
  </g>
</svg>
